<svg id="Layer_1" data-name="Layer 1" xmlns="http://www.w3.org/2000/svg" viewBox="0 0 101 101.1">
    <defs>
        <style>.cls-1{fill:#3e4357;stroke:#fff;stroke-linecap:round;stroke-linejoin:round;}</style>
    </defs>
    <path id="DZA2143" class="cls-1"
        d="M52.61,47.15l.26,3-.06,1.11-.27,1.19-.61,6.91,0,.13,0,.13-.09.13-.21.23-.15.13-.31.33-.06,0-.5.08-.09,0,0,0-.3.42-.13.14-.08.06-.14.07-.39.12h-.76l-.18.06h-.07l-.27,0-.36,0,0,0,0,0-.33.24L47,61.9l-.22.11,0,0-.09.12-.05.11v.08l.05.07.41.39.76,1.06,0,.09,0,.1,0,.11,0,.11v.31l-.07.53,0,.15.06.11.82.63.07.06,0,0v.07l0,17.35.09.17.24.31,10.68,6.29.5.47.36.52.15,1.18,0,7.66h0l-1.19.24-.51.1-.39.09h-.19l0,0-.12-.07-.28-.29-.23-.09-.11-.06-.09-.08-.09-.08-.08-.12v-.09l0-.09.07-.11,0-.1,0,0,.06,0,.11-.11,0-.09,0-.2,0-.09.09-.08.1-.06.09-.07.05-.11,0-.12,0-.08-.06-.07,0-.1v-.05l0-.11v0l0-.05,0,0,0,0L58,97.63v-.2l.09-1,0-.07L58,96.26l-.09,0-.17,0-.08,0-.28-.22-.61-.27-1.33-.28-.26,0-.45-.08h-.05l-.09,0-.18-.09-.09,0-.12,0-.07,0L54.11,95l-.19-.36-.16-.22-.17-.2-.3-.23-.09,0-.08,0-.11,0-.12.07-.19.19-.13.06H52.5l-.31-.11,0,0,0,0,0,0H52l-.07,0-.08.08,0,0H51.7l0-.06V94l0-.1-.08-.06h-.27l-.1,0-.57-.48,0-.08v-.39l0-.19-.09-.15-.31-.23-.19-.1-.18,0-.09-.06-.09,0-.19,0-.21-.07-.08-.05-.08-.1-.1-.18-.06-.06-.12,0h-.1l-.19,0h-.1l-.11,0-.07,0,0-.07v-.23l.11-.47.06-.56v-.12l-.09-.33-.06-.1-1-.69-.83-.59-.42-.3-2.1-1.48L42.91,86l-1.68-1.18-.84-.59-1.25-.89-1.27-.9-1.25-.89-.42-.29-.84-.6-.42-.29-1.26-.9-.84-.59L31.58,78l-1.26-.89-2.09-1.5-.85-.6L27,74.7l-.77-.55-1.16-.83-1.92-1.39-.78-.56-1.16-.83-.54-.39-.73-.5-.74-.51-.84-.58-1.69-1.15-.84-.57-.7-.46.06-.06,13-9.1-3.77-7.47,1-.09.86.44.51.35L27.9,51l1,.2,1.18-.47.68-.43,1.52-1.19.6-.36.56-.21,4.44-.81.65-.47,3-4.09,2.9-5.41L46.17,36l.45-.38.92-.59,5.1-2.6L52.57,37,52,41.25l.66,5.9Z" />
    <path id="DZA2144" class="cls-1"
        d="M39.31,11.08l-.41.08-.07.06-.15.2-.08.05h-.15l-.11,0-.06,0,0,.07v.07l0,.08,0,.1V12l-.06.12-.08.05-.08,0H38l-.1.05-.07.07-.13.23-.23-.06-1.08-.58h-.12l-.06,0h-.14l0,0v-.17l.06-.05,0,0v-.18l0-.11v0l0-.05,0,0,0,0H36v-.09h0l.13-.16.09,0,.09-.06.08-.08,0-.08,0-.12.06-.28,0-.1.06-.1.17-.44,0-.06.06,0H37l0,0,.12-.18,0,0,.14.34.16.14.14.06,0,0V10l0,0,0,.05-.17.14,0,.06,0,.07v.18l0,.05,0,0,.05,0,0-.07,0-.1,0-.06,0,0,0,0,.11.07.06,0h.09l1-.26h.12l.13,0,.08.09.18.23,0,.08,0,.07-.11.07,0,0v0l0,0,0,.05V11l-.08.08Z" />
    <path id="DZA2145" class="cls-1"
        d="M42,8.36v0l-.2.22-.23.31L41.47,9l-.08,0h-.23l-.08.05,0,.05L41,9.27l-.06.09-.07.07-.28.21,0,.07,0,.07,0,.11,0,.09,0,.06,0,0-.12,0-.06,0,0,0v.16l0,.09,0,0-.11.07,0,0h0l-.06,0,0,.06,0,.07,0,.24,0,.07,0,.07-.05.06,0,0-.05,0-.06,0h-.05l0,0,0-.18.08-.08v-.1l0-.05,0,0v0l0,0,.11-.07,0-.07,0-.08-.18-.23-.08-.09-.13,0H39l-1,.26h-.09l-.06,0-.11-.07,0,0,0,0,0,.06,0,.1,0,.07-.05,0,0,0,0-.05v-.18l0-.07,0-.06.17-.14,0-.05,0,0V9.93l0,0-.14-.06-.16-.14-.14-.34.12-.08.14-.14L37.5,9l0,0,.17,0,.09-.07.08-.06L38,8.78l.12,0h.06l0,.05,0,0,.06,0,.18-.11.12-.21.11,0,0,0,0,0,0,0,.07,0h0l.1,0h0l.06,0,0,0,0,.05,0,0h.23l.09,0,.1,0,.08-.07.06-.17h.06l.06,0h.05l.06,0,0,0,.22-.49V7.87l0,0V7.75h0l.07,0h.2l.2-.1.13,0,.06,0,0,.06.05,0h0l0,0,0,.07,0,.08V8l.08.09.13.06.34.08.21.09.1,0,.05,0Z" />
    <path id="DZA2146" class="cls-1"
        d="M41.74,12.32h-.12l0,0,0,0,0,0h-.1l0,0,0,.07v.13l0,.1v0l0,0v.06l0,0,0,0h-.06l-.05,0h-.06l0,0,0,0v.06l0,0v0l0,0v0l0,.16v0l0,0,0,0,0,0v.06l0,0,0,0-.12,0-.1.05h0l0,0h0l-.05,0,0,0v0l0,0,0,0L41,14l.07.05,0,.06v.12l0,0,0,0,.09,0,0,0,0,0h.14l.05,0,0,0v.11l0,0,.08.06,0,0,.17.13.16.16.25.38,0,.08v.22l0,.1,0,.09,0,0-2,1.76-.07-.21,0-.06L40,17.22l-.07,0-.09-.05-.11,0h-.18l-.1,0-.2.13-.3.24-.12.07-.12.05-.22,0-.37,0-.11,0-.1-.05-.08-.06-.09-.06-.06,0h0l-.15,0h-.1l-.08,0-.07,0-.13-.08.12-.19.19-.2.79-.66.08-.1,0-.09V16l0-.07-.07-.08,0,0,0,0v0l0-.05.06,0,.21-.07,0,0,0,0,.08-.23.09-.2.07-.12.07-.15v-.1l0-.08,0,0-.31,0h-.12l-.1,0,0-.11v-.14l0-.19V14h-.12l-.07,0h0l0,0v-.05l0,0,.08-.1v0l0,0-.1,0,0,0,0-.06,0-.09v-.23l.06-.23,0,0,.06-.09,0-.12v0l0,0-.29-.19-.05,0,.13-.23.07-.07.11-.05h.08l.08,0,.08-.05L38.3,12v-.12l0-.1,0-.08v-.07l0-.07.06,0,.11,0h.15l.08-.05.15-.2.07-.06.41-.08,0,.18,0,0h.05l.06,0,.05,0,0,0,.05-.06,0-.07,0-.07,0-.24,0-.07,0-.06.06,0H40l.11,0,.1,0,.08,0h0l0,0v.09l-.05.08-.08.11,0,0,.07.05.16.07.1,0h.07l.07-.08,0,0h0l.75.29.08.06v.08l0,.11,0,.1,0,0,0,.09v.14l0,0V12l.1.09.06.09.08.18Z" />
    <path id="DZA2147" class="cls-1"
        d="M37.69,12.53l.05,0,.29.19,0,0v0l-.06.12-.05.09,0,0-.06.23v.23l0,.09,0,.06,0,0,.1,0,0,0v0l-.08.1,0,0V14l0,0h0l.07,0h.12v.16l0,.19v.14l0,.11.1,0h.12l.31,0,0,0,0,.08v.1l-.07.15-.07.12-.09.2-.08.23,0,0,0,0-.21.07-.06,0,0,.05v0l0,0,0,0,.07.08,0,.07v.1l0,.09-.08.1-.79.66-.19.2-.12.19L37,17.4l-.06,0-.29.13,0,0-.06.06-.06.05,0,0h-.05l-.33,0h-.56l-.17,0-.86.54-.07,0v-.08l-.35-1.09L34,17l-.19-.22.52-.63-.06,0-.17,0-.58-.6,0-.1.25-.4.12-.26.06-.05,0,0-.09-.09-.51-.33L33.22,14,33,13.85l-.06-.08,0-.08v-.08l0-.07-.07,0-.21,0-.17-.11-.15-.14-.18-.13L31.92,13l-.09-.13,0-.15v-.23l.11,0,.05,0v0l.15-.07.16,0,.18.08.16,0,.31,0,.12,0h.08l.08-.07.45-.13.13-.09H34l.07-.06.16-.19.31-.1,0,0,0-.1.58-.49.09,0,.46,0,.13,0,0,0v.09h.09l0,0,0,0,0,.05v0l0,.11v.18l0,0-.06.05v.17l0,0h.14l.06,0h.12l1.08.58.23.06Z" />
    <path id="DZA2148" class="cls-1"
        d="M44.48,37.8l-2.9,5.41-3,4.09-.65.47-4.44.81-.56.21-.6.36-1.52,1.19-.68.43-1.18.47-1-.2-1.19-.59-.51-.35-.86-.44-1,.09-7.34,2-3.55-7.58.57-.12.61-.08.17.51.41.15.47-.15.51-.66.43-.7.34-.68.47-.5.51-.35.55-.47.41-.31.5-.28.71-.31.68-.55.54-.7.47-.28.58-.16.75,0,.81-.19.91-.48-.07-.71.24-.24.27-.43L25.07,36v-.11l0-.1L25,35.67l0-.05-.18-.08-.08-.09-.13-.21-.07-.07-.09,0-.07,0-.14.14-.09,0H24L24,35.3v-.1l0-.11.1-.17v-.13l0-.43,0-.1.06-.08.27-.2.36,0,.06-1.48.33-.17.21,0,.18,0L27,32.09,28,31.77l.84-.12-.2-.56-.33-.89.28-.15.89-.08.87-.24,1,0,2,.09,1.23.06,1,0L36,30l.52,0,.19,0,.1-.2,0-.12-.08-.07-.1,0h-.09l-.18.07h-.08l0-.1,0,0,.08-.06,0,0,0-.06v-.16h.08l.69-.08h.32l.1,0,.09,0,.08,0,.05.05,0,.06.05.08.06.11.16.37h.11l.24,0,3.9-1.24L40.6,33.73V34l.15.31,1,1.2,2.69,2.34Z" />
    <path id="DZA2149" class="cls-1"
        d="M40.19,17.58l-.06.14v.07l0,.11,0,.11.36.72.13.35v.21l.09.1,0,0,0,0v-.2l0,0H41l0,0,0-.08.17-.25.15-.18,0,0,.05,0,.09,0,.17-.06,0,0H42l.14,0,0,0,0,0,0,.11v.26l0,.06v0l0,0h.06l.21-.11.23-.17.1-.06H43v.24l-.17,1.19,0,1,.11,1.43,0,.4-.05.22-.26.9-.09.32,0,.23v.12l.12,1v.08l0,.12-.41,1.11v.26l.07.12.08.05.07,0h.08l.06,0,0,0,0,.08v.24l0,.26-.13.42-3.9,1.24-.24,0H38.1l-.16-.37-.06-.11-.05-.08,0-.06-.05-.05-.08,0-.09,0-.1,0h-.32l-.69.08h-.08l.08-.52.07-.21,0-.1.08-.1.08,0,.2,0,.18-.08.16-.13.28-.32-.07-.13-1.35-1-.31-.11-.16-.14L35,25.12l.2-.15,0,0,0-.05,0-.05v-.32l0-.12-.08-.08-.14-.1-.13-.12-.1-.14-.06-.18-.09-.17-.24-.24,0-.19v-.58l0-.14.07-.15L34.6,22l.07-.11.07-.16,0-.19L34.5,21l-.06-.07-.08-.06-.17-.06-.07-.06,0-.09,0-.09,0-.06.05-.05,0-.06,0-.08v-.07l0-.17,0-.28v-.28l.23-.94v-.19l.07,0,.86-.54.17,0h.56l.33,0h.05l0,0,.06-.05.06-.06,0,0,.29-.13.06,0,.08-.07.13.08.07,0,.08,0h.1l.15,0h0l.06,0,.09.06.08.06.1.05.11,0,.37,0,.22,0,.12-.05.12-.07.3-.24.2-.13.1,0h.18l.11,0,.09.05.07,0,.07.09,0,.06.07.21Z" />
    <path id="DZA2150" class="cls-1"
        d="M24.38,49.75l3.77,7.47-13,9.1-.06.06-.69-.45-1.63-1.06L11,63.71l-1-.62-.95-.64-1-.63-1-.63L5.29,59.94l-1-.63-1-.63-1-.64-1-.64-1-.63V49.2l0-.15,0-.1.09-.08.62-.34.22-.17.22-.12.06-.07.16-.3L2,47.81l.17-.08.08,0,.32-.3.33-.23.55-.24.16-.12.44-.42L4.59,46l.29-.27.23-.13.08,0,.29-.31.17-.07h.22l.22,0H6.3l.1,0,.55,0,.44-.46.54-.23.38,0,.54,0,.85.34.4-.38.68-.08.71-.2.67-.07h1.33L17,51.72Z" />
    <path id="DZA2163" class="cls-1"
        d="M80.19,1.74l-.06,0,0,.05v.57l0,.07,0,0-.1,0,0,0,0,0-.09.19L79.66,3l-.07.14-.1.16,0,0,0,0,0,0,0,0-.14,0H79.1L79,3.4l-.07,0-.11-.06-.08,0,0,0,0-.06V3.07l0-.09,0-.06-.36-.2-.06-.38-.09-.28V1.92l0,0,0-.08,0-.06-.05-.05L78,1.61l-.07-.11L77.71.64v0l.06,0,0,0,0-.05h.09l.1.06h.09l.13-.07h.06l0,.08,0,.07,0,0h.17l0,0,0,0,.08,0,.09,0L79,.87l.14.15.16.12.22.05,0,0,0,0h.11l.05,0,0,0,0,0,0,0,.23,0,0,0,.09-.1,0,0,0,.12-.06.13,0,.12.08.08-.08.18Z" />
    <path id="DZA2164" class="cls-1"
        d="M82.09,4.14l0,0L82,4.24l-.06.07-.1.15,0,0-.07,0-.07,0-.06,0-.08,0h-.13l0,0,0-.28-.07-.15,0-.05,0,0,0,0,0,0-.87-.37-.06,0,0-.06,0-.09,0-.06,0-.07-.16-.14-.05,0-.23,0L79.66,3l.13-.17.09-.19,0,0,0,0,.1,0,0,0,0-.07V1.81l0-.05.06,0,.17.13.27.08.21,0,.68-.17.11-.06.1-.09.68-.34.08.06.09.09.09.05H83l.09,0,.07,0,.06,0,.06.05.07,0h.33l.51-.21,0,.16v.07l0,.06L84.4,2v.07l-.09.06L84,2.26l-.17,0h-.18l-.18,0-.15.08,0,.09.16.09.1.12,0,.22-.11.22-.11.12-.59.35-.32.12-.14.09-.11.14v.2Z" />
    <path id="DZA2165" class="cls-1"
        d="M73.81,3.62l-.62-.13,0,0,0,0,0-.08H73l-.14.08-.11,0,0,0-.06.07,0,0H72.4l-.19,0-.26,0-.17,0h-.17l-.18.08-.07.05,0,.07,0,.07,0,0-.1,0-.17,0h-.11l-.12,0-.07,0-.09,0h-.06l-.19,0L70,3.88H69.9l-.12-.09h0l-.07,0,0,0-.08.08,0,0-.06,0h-.11l0,0,0-.05,0-.09V3.7l0-.11-.11,0L69,3.48l-.12,0,0,0v0l0,0,0-.06,0-.19H69L69.09,3l0,0,.19-.07.1-.08.06-.22.07-.09.08-.07.09,0,.21-.06L70,2.28l.18-.16.11,0h.12l.33.07H71L71.77,2l.78-.29.18-.11.06-.09,0,0,.08.08,0,0v.09l0,.11v.07h.16l0,0,0,0,0,.05,0,0,0,.07,0,.09v.17l0,.1.06.15.26.28.23.13,0,0,0,0-.1.23v.26Z" />
    <path id="DZA2166" class="cls-1"
        d="M77.71.61v0l.21.86.07.11.14.07.05.05,0,.06,0,.08,0,0v.14l.09.28.06.38-.08,0-.09.06,0,0L78,2.92V3l0,.15,0,0,0,0h-.08l-.12,0-.13,0L77,3.58l-.11.09-.12.15,0,.08V4l0,0v.08l0,0,0,0-.37.11-.12.07-.11.2-.36-.09-.08,0h-.07l0,0,0,0v0l0,0,.06,0V3.93l0,0,.07,0h.11l.06,0h0l0,0,0,0v-.1l0,0h-.09l-.56,0-.21-.06-.26-.12,0-.05,0,0,0,0h0l-.26.2-.09,0-.2,0h-.4V3.36l.1-.23,0,0,0,0-.23-.13-.26-.28-.06-.15,0-.1V2.21l0-.09,0-.07,0,0,0-.05,0,0,0,0h-.16V1.8l0-.11V1.6l0,0-.08-.08,0,0,0-.06V1.08L72.88,1l0,0,.21-.15.06-.08,0,0L73.4.56l.21-.05h.23L74,.57l.18.13h0V.82l0,0h0l.05,0,0,.23.08.1.07,0,.09,0,.09.05.1,0,.73.05.06,0,.09.05.08.07,0,.06v.1l.14.06h.32l.43-.14.13-.07.08,0,.12,0h.12l0-.05,0-.06.2-.17.07,0,0,0,0-.06,0-.08V1l0,0L77.46.72,77.32.6v0h.05l.09,0h.1l.09,0,.06,0Z" />
    <path id="DZA2188" class="cls-1"
        d="M99.25,74.43H84.63l0,0-.13-.14-.13-.16-.12-.17L84,73.43l0-.08-.06-.07-.07-.06h-.23l-.39,0L82.73,73l0,0-.15-.15,0,0h-.13l-.08,0-.18-.12-.36-.11-.12,0h-.24l-.32-.06,0,0-.15-.09,0-.05-.11-.12,0,0-.1,0-.06,0-.3-.31,0,0-.11,0h0l-.21-.12,0-.06-.05-.06-.12-.12,0,0-.09-.06h-.15l-.06,0-.06-.06-.06,0,0,0-.06,0L79,71l0,0-.06,0h0l-.2,0-.19,0-.21-.08-.06,0-.09-.08-.1-.06-.06-.06,0-.09-.15-.18-.13-.24L77.52,70,77.44,70l-.31-.21L77,69.67,77,69.59l0-.07-.1-.42v-.57l0-.1.1-.25,0,0,.22-.32,0-.1v-.21l0-.06,0-.09-.07-.11L77,67.11l-.54-.69-.06-1,0-.24L76.24,65,75,64.7l-.15-.07-.12-.07-.52-.22-.08-.06-.06-.06-1-1.38,0,0-.51-.25-.06,0,0,0,0-.07v-.25l0-.12,0-.12.4-1,0-.09v-.22l0-.16-.09-.15-.18-.18-1-.73-.2-.21,0-.07,0-.08-.54-1.86-.12-.65.11-.46.17-.27.3-.27.36-.27,1.2-1.15,1.31-.5.19-.17-.1-.67-.17-.44-.29-.29-2.41-1.91,2.27-1.33,1.77-.76h.72l1,.16,10.77-6.59.26.31.62.92L89.36,44l.38,1.34.39,1.33.1.84,0,1.06-.12.92-.24,1.93.06.32.71,1.89v.21L90.3,55l-.08.11-.13.07-.12.09v.11l.08.13,0,.11,0,.1-.2.23-.07.12-.07.32-.08.22,0,.08v.09L90,58.19l.09.57,0,.11,0,.05.22.12.07.06,0,.08-.12.58V60l0,.15v.11l-.2.7-.09.1-1.71.82v.11l0,.09,0,.08-.17.16-.08.21-.07.09-.13.25.12.31.68.95.74,1L90.82,67l.18.34.07.34,0,1.47v.73l.06.15.72.42.09.15.09.49.06.19.08.09.64.52.09,0,.2,0,1.1-.41h.1l.11,0,.92.31,2.9,1,.15.09.13.17.69,1.41Z" />
    <path id="DZA2189" class="cls-1"
        d="M71.37,50.17l2.41,1.91.29.29.17.44.1.67-.19.17-1.31.5-1.2,1.15-.36.27-.3.27-.17.27-.11.46.12.65.54,1.86,0,.08,0,.07.2.21,1,.73.18.18.09.15,0,.16v.22l0,.09-.4,1,0,.12,0,.12v.25l0,.07,0,0,.06,0,.51.25,0,0,1,1.38.06.06.08.06.52.22.12.07.15.07,1.2.33.07.14,0,.24.06,1,.54.69.15.14.07.11,0,.09,0,.06v.21l0,.1-.22.32,0,0-.1.25,0,.1v.57l.1.42,0,.07.05.08.09.08.31.21.08.08.07.08.13.24.15.18,0,.09.06.06.1.06.09.08.06,0,.21.08.19,0,.2,0h0l.06,0,0,0,.09.08.06,0,0,0,.06,0,.06.06.06,0h.15l.09.06,0,0,.12.12.05.06,0,.06.21.12h0l.11,0,0,0,.3.31.06,0,.1,0,0,0,.11.12,0,.05.15.09,0,0,.32.06h.24l.12,0,.36.11.18.12.08,0h.13l0,0,.15.15,0,0,.46.13.39,0h.23l.07.06.06.07,0,.08.21.46.12.17.13.16.13.14,0,0H99.25l.54,1.11L100.5,77l-.33.21-1,.64-1,.64-1.33.84-.65.43-1,.63-1.32.84-1,.63-1.32.84-1,.64-1,.63L88,85l-.65.41L86,86.25l-.33.21-1.31.83-1.66,1-.66.42-.32.21-.66.41-.33.21-.66.42-.33.21-1,.6-1.18,1-1.06.93-.19.17L75.16,94l-.61.56-.61.56-.3.28-1.23,1.11-.61.56-1,.91-.21.15-.22.08-1.1.23L66.67,99,63,99.75l-2.12.41h0l0-7.66-.15-1.18-.36-.52-.5-.47L49.17,84l-.24-.31-.09-.17,0-17.35v-.07l0,0L48.77,66,48,65.39l-.06-.11,0-.15.07-.53v-.31l0-.11,0-.11,0-.1,0-.09L47,62.82l-.41-.39-.05-.07v-.08l.05-.11.09-.12,0,0L47,61.9l.35-.13.33-.24,0,0,0,0,.36,0,.27,0h.07l.18-.06h.76l.39-.12.14-.07.08-.06.13-.14.3-.42,0,0,.09,0,.5-.08.06,0,.31-.33.15-.13.21-.23.09-.13,0-.13,0-.13.61-6.91.27-1.19.06-1.11-.26-3L57,46.66l4,3.2,4.53.46,5.82-.15Z" />
    <path id="DZA2190" class="cls-1"
        d="M49,18.53l.26.53.09.09.09.06.26.12.21.12.74.21.23.09.16.1.09.06.08.09.08.12.35.72.66,1,.06.18,0,.25,0,.19-.06.15-.18.21,0,.06,0,.07v.1l.06.1.09.14,0,.08,0,.08.05.36,0,.13.07.17.11.19.48.58.15.34.27,1,.14.28,0,.18,0,.26,0,1.39,0,.21.15.56,0,.2,0,.2v.23l0,.21-.08.2-.42.63-.07.16v.2l0,.16.09.27,0,.12v.1l-.08.12-.11.1-.42.29-.14.14L47.54,35l-.92.59-.45.38L44.48,37.8l-2.69-2.34-1-1.2L40.6,34v-.22l1.75-5.12.13-.42,0-.26v-.24l0-.08,0,0-.06,0h-.08l-.07,0-.08-.05-.07-.12v-.26L42.47,26l0-.12v-.08l-.12-1v-.12l0-.23.09-.32.26-.9.05-.22,0-.4-.11-1.43,0-1L43,18.89v-.24l.07-.16,0-.1,0-.07.14-.15.18-.15.07-.09,0-.05,0-.09,0-.09,0-.08.07,0,.08,0h.39l0,0,.2-.17,0,0,1-.65h0l.35-.22.16-.07h.14l1,.33.2.15.09.1-.07.7v.1l0,.06.07,0,.75-.05.19,0,.09.05.06.1.1.25.26.33Z" />
    <path id="DZA2191" class="cls-1"
        d="M75,16.72l.09.29.14.16,1,.62.27.09.57.1.33.18.33.11.28,0,1,0-.1.1-.07.16V19l-.1.59,0,.22.07.32,0,.1.14.28,0,.3,0,.15.68,1.18.07.23v.8l.07.27.13.14.17.05.23,0,.18.06.54.39.09.05.1,0h.1l.1,0,.11.06.46.72.49.77.06.18.07.81,0,.59.06.19.15.16.59.38.77.57,1,.73.81.59.07.08,0,.11.09.41H78l-.69-.08-.67-.21-.49-.51-.38-.56L75.12,28l-.21-.49-1.06-3.71-.42-.94-.9-.34-5.74-.38.55-.75.47-.8.26-.33.21-.22.06-.11,0-.13.19-1.24v-.42l0-.22-.08-.2,0-.1-.15-.22L68,17.21l-.35-.3,0,0,0,0v-.08l0-.07,0-.07,0-.06,0,0,.06,0,.21-.08.08,0,.06-.06v-.17l0-.08,0,0h0l.3.14.46.15,2.52.32.94-.2h.09l.78.22.28.13,0,0,0,.06,0,.06.07.06.1,0,.07,0,.1,0h.15l.16,0,.17-.07.17-.1.17-.15Z" />
    <path id="DZA2192" class="cls-1"
        d="M66.65,25.65l-1.16,1.78-.95.9-.69.46-.12.13-.08.1-.17.32-.19.54-.41.75-.43,1L62.15,33,61,41.84l-.4.7-.59.55-.35.41-.23.32L59,45.33l-.26.32-1.74,1-4.39.49L52,41.25l.62-4.3.07-4.53.14-.14L53.2,32l.11-.1.08-.12v-.1l0-.12-.09-.27,0-.16v-.2l.07-.16.42-.63.08-.2,0-.21v-.23l0-.2,0-.2-.15-.56,0-.21,0-1.39,0-.26,0-.18,1.74-.33.55-.21.59-.13,1-.11.28,0,.12.05.41.2.14,0,.13,0,.13-.08.09-.11.19-.25.1-.11,1.49-.7,0,0H61l.05,0,.13.07.16,0,1.41-.27,3.89,1.08Z" />
    <path id="DZA2193" class="cls-1"
        d="M62.76,24.57l-1.41.27-.16,0-.13-.07-.05,0h-.36l0,0-1.49.7-.1.11-.19.25-.09.11-.13.08-.13,0-.14,0L58,25.8l-.12-.05-.28,0-1,.11-.59.13-.55.21-1.74.33-.14-.28-.27-1-.15-.34-.48-.58-.11-.19-.07-.17,0-.13-.05-.36,0-.08,0-.08-.09-.14-.06-.1V23l0-.07,0-.06.18-.21.06-.15,0-.19,0-.25-.06-.18-.66-1-.35-.72L51.23,20l-.08-.09-.09-.06-.16-.1-.23-.09-.74-.21-.21-.12-.26-.12-.09-.06-.09-.09L49,18.53l1.47-1.11.08-.09,0-.15,0-.12.08-.16.12-.17.26-.29.18-.15.13-.09L52,16l.11-.07.52-.45.46-.26.07-.08,0-.07,0-.08,0,0,.09,0,.37-.07H54l0,.32,0,.07,0,.09-.13.15-.07.13,0,.19,0,.33v.21l.05.16.06.08.1.1.06.07,0,.1L54,17l.08.51,0,.09.06.1.18.2.07.11.06.12.06.14,0,.09v.1l-.1.31,0,.14V19l0,.33,0,.07.07,0h.14l.38.05h.2l0,0,0-.14V19.1l0-.63v-.06l0-.05,0,0,.06,0,.43-.07.23-.08.07,0,.05-.05,0-.15,0-.08.06-.07.36-.34.08-.05H57l.11.07,0,0h.31l.11.05,0,.06.12.34.06.44,0,.13.05.14.36.61,2,2.22,1.88,1.66.14.16.13.16.16.32.23.62,0,.19Z" />
    <path id="DZA2194" class="cls-1"
        d="M86.43,30.48l.15.69.14.62.13.63.28,1.26.13.62.14.62.14.62.27,1.25.14.61.28,1.25.41,1.85-1.13.63.11.18.29.34L77.14,48.24l-1-.16h-.72l-1.77.76-2.27,1.33-5.82.15L61,49.86l-4-3.2,1.74-1,.26-.32.39-1.51.23-.32.35-.41.59-.55.4-.7L62.15,33l.3-1.36.43-1,.41-.75.19-.54.17-.32.08-.1.12-.13.69-.46.95-.9,1.16-1.78-.12-2.31.15-.56.11-.61,5.74.38.9.34.42.94,1.06,3.71.21.49.6,1.08.38.56.49.51.67.21.69.08Z" />
    <path id="DZA2195" class="cls-1"
        d="M57.9,2.62l.29.35L58,3.1l-.23,0-.06,0-.06,0h-.06l-.07,0-.06,0,0-.09V2.93l0-.07-.14,0V2.68l-.05,0h-.23l0,0,0,0,0-.06V2.37l0-.14v0l.15,0,.16.1.12.14.14.12.18.06Z" />
    <path id="DZA2196" class="cls-1"
        d="M62.1,1.69V1.9l0,.08,0,.08-.14.19-.12.14-.08,0h-.06l-.05,0v0l0,.05,0,0,0,.06.09.1v0l0,0-.08.08L61.58,3l0,0-.06,0h-.1L61.22,3l0,0-.05,0,0,.06,0,.06,0,.05h-.09l-.05-.06,0,0h0l-.09,0,0,0,0,0v.24l-.32.06h-.08l0,0,0,0,0-.05,0-.07.14-.18,0-.06v0l0,0,0,0-.09,0h-.12l-.08,0L59.82,3h-.14L59.38,3l-.1.07,0,0h-.05L59,2.92l0-.06-.05,0-.08,0h-.15l-.17,0L58.19,3l-.29-.35h0l.16-.08.06-.09,0-.09V2.2h0l.31.15.18,0,.58,0h.1l.19-.06h.1l.05,0,0,0,0,0,0,0H60l.19-.1.29-.29.15-.11.42-.13.22,0,.19,0,.17.11.08,0h0l.1,0h.21Z" />
    <path id="DZA2197" class="cls-1"
        d="M64.78,1.7v.14l0,.07.2.3v.16l0,.13,0,.06,0,0h0l-.12-.05h-.12l-.06,0,0,0,0,.08v0l0,0,0,0,.1,0,.05,0,0,0,0,.05V3l0,.08-.2.32-.06.17,0,.07-.36.41L64,4.17l-.27.09-.09,0-.21,0h-.08l-.21-.06h-.07l-.16.07-.08,0-1.21,0-.23-.08-.18-.11L61,3.9l-.12-.09-.15-.12-.14-.24V3.21l0,0,0,0,.09,0h0l0,0,.05.06H61l0-.05,0-.06,0-.06.05,0,0,0,.15.05h.1l.06,0,0,0,.05-.08.08-.08,0,0v0l-.09-.1,0-.06,0,0,0-.05v0l.05,0h.06l.08,0,.12-.14L62,2.06l0-.08,0-.08V1.69l.22,0,.1.05.2-.11h.12l.12.05.07,0,.06,0,.13-.08.07,0h.08l.13.06.07,0,.58-.09h.06l.07,0,.07,0,0,0,.06,0h.15l.07,0,.15-.07Z" />
    <path id="DZA2198" class="cls-1"
        d="M57,2.19v0l0,.14V2.5l0,.06,0,0,0,0h.23l.05,0V2.9l0,.13V3.1l0,0,0,0-.1,0-.06,0,0,0,0,0-.07,0-.55,0,0,0,0,0v0l0,0-.07.06-.3.15-.09,0-.08,0-.09.07L55.38,4,55.3,4l0,.07,0,.1,0,.06-.05,0-.1,0h-.22l-.14,0h0l0,0,0,0,0,.23-.93,0-.69-.14H52.8l-.32.11-.18,0-.06,0h-.12l-.15,0L51.3,4.5h-.08l0,0,0,.14,0,0,0,0-.05,0-.11.06,0,0h0l-.13-.27-.16-.18,0-.11.13-.21,0-.11.06-.2h.12L51,3.74h.09l.11,0h.05l.27-.07.27,0,.22.05h.06l.42-.06,1.22-.36.1,0h.1l.11,0,.09.06,0,0v.06l0,0,.05,0h.06l.1,0h0l.7,0,.15-.06.46-.36.32-.18.12-.1.12-.18,0-.08.13-.13.27-.2.22,0Z" />
    <path id="DZA2199" class="cls-1"
        d="M54.54,4.57l.05.12,0,.06,0,0,0,0v.07l0,0h.09l.23-.09.14,0,.12-.07h0l0,0,0,.18V5l0,.06-.09.09-.08,0-.08,0h-.3l0,0,0,0,0,.06-.06.07,0,0,0,0v.1l0,.07.08.07,0,0,0,0,0,.05,0,0,.05,0L55,5.85l0,0h0l.09,0h.2l0,0V6l0,.06-.15.15-.07.11L55,6.42l0,.08-.51.33,0,0,0,.06,0,.07,0,.14,0,.08-.06.09L54,7.6l-.21.29-.33-.13-.23-.14-.12,0h-.13l-.23,0h-.26l-.17,0-.11,0,0,.06,0,.09,0,0-.08,0-.24-.07-.07,0-.08.11-.06,0-.06,0,0-.06-.15-.16-.44-.13,0-.11,0-.08,0-.06v0l0,0-.12-.12-.15-.31,0-.11V6.51l0,0-.11-.06-.07-.06-.07-.12,0-.07,0-.06,0,0,.07,0,0,0,0-.06V5.83l0-.06,0,0h0l0,0V5.64l0-.16V5.42l-.1-.13-.07-.11L50.07,5v-.1l0-.08.34-.26.08-.11.16.18.13.27h0l0,0L51,4.82l.05,0,0,0,0,0,0-.14,0,0h.08l.67.08.15,0h.12l.06,0,.18,0,.32-.11h.12l.69.14.93,0Z" />
    <path id="DZA2200" class="cls-1"
        d="M50.78,3.81l-.06.2,0,.11-.13.21,0,.11-.08.11-.34.26,0,.08V5l.07.19.07.11.1.13v.06l0,.16v.05l0,0h0l0,0,0,.06V6l0,.06,0,0-.07,0,0,0,0,.06,0,.07.07.12.07.06.11.06,0,0v.15l0,.11.15.31.12.12,0,0v0l0,.06,0,.08,0,.11-.13,0h-.06l-.17-.08-.13-.08,0,0,0,0,0-.09v0l0,0-.12-.11H50L50,7.18l-.08.08,0,0V7.4l0,0,0,0,0,0-.21.08,0,0v0l0,.09,0,0-.15.1,0,0,0,.07,0,.08L49.21,8l0,0-.06-.06,0-.1,0,0L49,7.64l0-.07-.1-.24,0,0,0,0h0l-.46.14h-.08l-.09,0-.19-.12-.07,0-.05,0,0,0,0-.06L47.64,7l0,0,0,0h-.41l0,0L47,6.7V6.61l0-.09V6.44l-.09-.25,0-.06,0-.17v0l-.06,0h-.08L46.47,6l-.2.08H46.1L46,6V5.86l.16-.48,0-.08V5.07h.06l.07,0,.17-.11.3-.09.07-.06.05,0L47,4.64l.05,0,0,0v0l0,0,0-.06.08,0,.22,0,.18-.12H48l.11,0,.2-.11.11,0h.3l.11,0,.29-.14.1,0h.09l.21.08.11,0h.11l.2-.06.89,0Z" />
    <path id="DZA2201" class="cls-1"
        d="M43.66,8.92l.18.16,0,.16,0,.23,0,.11.05.1.07.06.12,0h.07l.17,0h.2l.11,0,.12.09L45,10l.09,0h.09l.1,0h.16l.1.07,0,0,0,.05.08,0,.32,0,.26.12.23,0,0,.11,0,0,.05,0,.17.1,0,0v.07l0,.09-.23.31-.08.1-.12.06h-.07l-.06,0-.07,0-.18-.07h-.12l-.07,0-.07,0-.07,0-.07.05-.06.09-.06.1-.13.31-.25.34-.1.28-.07.05-.14.11-.09.05-.1,0h-.1l-.2,0h-.08L44,12.8l-.15,0-.08,0-.08,0-.1,0-.09,0-.12-.08-.06-.08-.08-.16-.06-.07-.06,0H43l-.08,0h-.08l-.13,0h-.09l-.06.05,0,.09,0,0h-.05l-.1-.07-.08-.08,0,0h-.07l0,0,0,0V12.2l0-.06,0,0h0l0,0,0,.05,0,.08,0,0-.14,0-.08-.18-.06-.09L41.5,12v-.08l0,0V11.7l0-.09,0,0,0-.1,0-.11v-.08l-.08-.06-.75-.29h0l0,0-.07.08h-.07l-.1,0-.16-.07-.07-.05,0,0,.08-.11.05-.08v-.09l0,0h0l-.08,0-.1,0-.11,0h-.1l0,0,.11-.07,0,0,0-.09v-.16l0,0,.06,0,.12,0,0,0,0-.06,0-.09,0-.11,0-.07,0-.07.28-.21.07-.07L41,9.27,41,9.13l0-.05L41.16,9h.23l.08,0,.09-.07.23-.31.2-.22v.07l.06.09v.1l0,0,.18.1,0,0h.07l.09,0,.23-.06.14-.06.15-.1,0,0h0l0,0,0,.08,0,.05.08.25,0,0L43.37,9l.1,0Z" />
    <path id="DZA2202" class="cls-1"
        d="M46,6l-.11.12-.05.1-.06.07-.17.17,0,0-.06.13,0,0-.06,0-.13,0,0,0,0,0v.46l0,0-.06,0h0l-.14,0h0l0,0-.05,0-.06.12,0,.07v.1l0,0,0,0,0,0v0l-.07.31,0,.05,0,0-.06.07-.09.09-.07.05-.08,0h-.16l0,0L44,8.5l-.15.13-.05.07-.06.05-.08.07,0,.1h-.19l-.1,0L43.3,9l0,0-.08-.25,0-.05,0-.08,0,0h0l0,0-.15.1-.14.06-.23.06-.09,0h-.07l0,0-.18-.1,0,0v-.1L42,8.46v-.1l.15,0,.21-.11.2-.15.16-.16.17-.35,0-.15L43.1,7l0-.14v-.1l0,0,0,0,0,0,.24-.25.08-.06.31-.11,0,0,0,0,.11-.07,0,0,0-.06,0-.14,0,0,.09-.05.12,0h.21l.11,0,.08-.06.07-.06.36-.25.18,0,.09-.08.07-.08.08-.06.09,0,.38,0V5.3l0,.08-.16.48V6Z" />
    <path id="DZA2203" class="cls-1"
        d="M49.38,8.05l0,.15-.13.17-.07.07-.07,0H49l-.13-.05H48.8l-.08,0,0,.07,0,.09v.3l-.07.31h-.19l-.1,0L48,9.4l-.19.06-.23.15h-.14l0,0v0l0,0,0,0v.05h0l-.05-.05-.07,0h-.09l-.05,0-.34.37,0,.05v0l0,.09,0,.07,0,0h-.12l-.1,0-.23,0-.26-.12-.32,0-.08,0,0-.05,0,0-.1-.07h-.16l-.1,0h-.09L45,10l-.15-.14-.12-.09-.11,0h-.2l-.17,0h-.07l-.12,0L44,9.68,44,9.58l0-.11,0-.23,0-.16-.18-.16,0-.1.08-.07.06-.05.05-.07L44,8.5l.06-.05,0,0h.16l.08,0,.07-.05.09-.09.06-.07,0,0,0-.05.07-.31v0l0,0,0,0,0,0v-.1l0-.07.06-.12.05,0,0,0h0l.14,0h0l.06,0,0,0V6.8l0,0,0,0,.13,0,.06,0,0,0,.06-.13,0,0,.17-.17.06-.07.05-.1L46,6,46.1,6h.17l.2-.08.28-.08h.08l.06,0V6l0,.17,0,.06.09.25v.08l0,.09V6.7l.13.2,0,0h.41l0,0,0,0,.06.1,0,.06,0,0,.05,0,.07,0,.19.12.09,0h.08l.46-.14h0l0,0,0,0,.1.24,0,.07.08.1,0,0,0,.1.06.06,0,0,.17.08Z" />
    <path id="DZA2204" class="cls-1"
        d="M44.93,12.53l.64,0,.13,0v.13l0,.06.11.07.17.08.1.07.07.09.1.13,0,.07v.15l0,.08-.45.4-.05.06,0,.08v.13l0,.18.1.32L46.69,16V16l0,.05,0,0-.3.16-.09.07h-.14l-.16.07-.35.22h0l-1,.65,0,0-.2.17,0,0h-.39l-.08,0-.07,0,0,.08,0,.09,0,.09,0,.05-.07.09-.18.15-.14.15,0,.07,0,.1-.07.16h-.08l-.1.06-.23.17-.21.11h-.06l0,0v0l0-.06v-.26l0-.11,0,0,0,0-.14,0h-.18l0,0-.17.06-.09,0-.05,0,0,0-.15.18-.17.25,0,.08,0,0H40.9l0,0v.2l0,0,0,0-.09-.1v-.21l-.13-.35L40.18,18l0-.11,0-.11v-.07l.06-.14,2-1.76,0,0,0-.09,0-.1v-.22l0-.08L42,14.92l-.16-.16-.17-.13,0,0-.08-.06,0,0v-.11l0,0-.05,0H41.3l0,0,0,0-.09,0,0,0,0,0v-.12l0-.06L41,14l-.19-.08,0,0,0,0v0l0,0,.05,0h0l0,0h0l.1-.05.12,0,0,0,0,0v-.06l0,0,0,0,0,0v0l0-.16v0l0,0v0l0,0V13l0,0,0,0h.06l.05,0h.06l0,0,0,0v-.06l0,0v0l0-.1v-.13l0-.07,0,0h.1l0,0,0,0,0,0h.12l.14,0,0,0,0-.08,0-.05,0,0h0l0,0,0,.06v.21l0,0,0,0h.07l0,0,.08.08.1.07h.05l0,0,0-.09.06-.05h.09l.13,0H43l.08,0h.05l.06,0,.06.07.08.16.06.08.12.08.09,0,.1,0,.08,0,.08,0,.15,0,.18-.08h.08l.2,0h.1l.1,0,.09-.05.14-.11.07-.05Z" />
    <path id="DZA2205" class="cls-1"
        d="M53.44,9.73l.17.71v.66l0,0,0,0,.08.05h0l.09,0,0,0,0,.05.07.14,0,.08v.09l0,.07v.07l0,0,0,0,1,.85.06.07,0,.07,0,.05-.07,0-.34.11h0l-.08.16-.22.6-.1.17-.34.38-.06.49h-.2l-.37.07-.09,0,0,0,0,.08,0,.07-.07.08-.46.26-.52.45L52,16l-.6.18-.13.09-.18.15-.26.29-.12.17-.08.16,0,.12,0,.15-.08.09L49,18.53l-.26-.33-.1-.25-.06-.1-.09-.05-.19,0-.75.05-.07,0,0-.06v-.1l.07-.7-.09-.1-.2-.15-1-.33.09-.07.3-.16,0,0,0-.05V16l-.79-1.37-.1-.32,0-.18V14l0-.08.05-.06.45-.4,0-.08v-.15l0-.07-.1-.13-.07-.09-.1-.07-.17-.08-.11-.07,0-.06v-.13l-.13,0-.64,0,.1-.28.25-.34.13-.31.06-.1.06-.09.07-.05.07,0,.07,0,.07,0h.12l.18.07.07,0,.06,0h.07l.12-.06.08-.1.23-.31,0-.09v-.07l0,0-.17-.1-.05,0,0,0,0-.11.1,0h.12l0,0,0-.07,0-.09v0l0-.05.34-.37.05,0h.09l.07,0,.05.05h0V9.76l0,0,0,0v0l0,0h.14l.23-.15L48,9.4l.26-.15.1,0h.19l.11.14.05,0h.06l.06,0,0-.06,0-.18L49,9,49,9h.07l.06,0,.07,0,.13,0,.27.13.06,0,0,.05,0,.07,0,.13,0,.07h0l.07,0,.09,0,.12,0,.09.06.15.18.13.09.11,0,.07,0,0-.12.05,0h0l0,0,0,0,0,0,0,0H51l.55,0,.44-.1.49,0,.05,0,0,.06v.1h0l.16-.06.23,0Z" />
    <path id="DZA2206" class="cls-1"
        d="M50.84,7.55l.44.13.15.16,0,.06.06,0,.06,0,.08-.11.07,0,.24.07.08,0,0,0,0-.09,0-.06.11,0,.17,0h.26l.23,0h.13l.12,0,.23.14.33.13-.34.74-.07.07-.09,0h-.09l-.08,0,0,.06,0,.06L53,9l0,.1.1.12.08,0,.18.08.05.06,0,.06-.06.27H53l-.24,0-.16.06h0v-.1l0-.06-.05,0-.49,0-.44.1-.55,0h-.08l0,0,0,0,0,0,0,0h0l-.05,0,0,.12-.07,0-.11,0-.13-.09-.15-.18-.09-.06-.12,0-.09,0-.07,0h0l0-.07,0-.13,0-.07,0-.05-.06,0L49.33,9,49.2,9l-.07,0-.06,0H49L49,9l0,.08,0,.18,0,.06-.06,0h-.06l-.05,0-.11-.14.07-.31V8.6l0-.09,0-.07.08,0h.07l.13.05h.07l.07,0,.07-.07.13-.17,0-.15,0-.08,0-.07,0,0,.15-.1,0,0,0-.09v0l0,0,.21-.08,0,0,0,0,0,0V7.29l0,0L50,7.18,50,7.07h.07l.12.11,0,0v0l0,.09,0,0,0,0,.13.08.17.08h.06l.13,0Z" />
    <path id="DZA2207" class="cls-1"
        d="M65.79,4.82l-.06.08V5l0,.07.07.1.08.07H66l.22,0h.07l.15,0,.23-.08h.07l.14,0,.14.06,0,0,0,.08.11.21.09.08.09,0,.08,0,.07-.05.06,0,0,0,0,0,0,.08v.08l0,.07h0l0,0,.05,0h0l0,0v.17l0,.09-.08.1-.08,0-.07,0,0,0,0,0,0,.08,0,.12v.05l0,.08,0,0V6.9l0,.1-.11.2,0,.11,0,.17v.14l0,.25V8l0,.06-.06,0h-.21l-.06,0,0,.06,0,.05v.26h-.19l-.08,0-.11-.07-.11-.1,0,0-.08,0h0l-.06,0,0,0-.11-.16-.05,0,0,0H66l-.17,0h-.26l-.15,0L65,8.13l-.1,0h-.59l-.08,0-.08,0L64.09,8l0-.08,0-.06.15-.13,0-.06,0-.06,0-.09,0,0h.1l.05,0,0,0v0l0,0-.05-.07,0-.06,0-.11,0-.1,0,0,0,0,0,0h-.06l-.1,0L64,7.09l-.1,0h-.12l-.16,0L63,7,62.8,7l-.07,0,0,0v0l0,0h-.1l-.12,0,0-.1,0,0-.07,0,0-.1,0,0,.15-.13.07-.09,0-.12.06-.22,0-.1L62.83,6l.23-.19.11-.13.23-.36.24-.31.1.13.07.31.08.18.08.07.1,0,.32,0h.07l.17-.07.29,0,0,0,0-.06,0-.07V5.3l0-.18,0,0,0,0L65.2,5l.07,0,.06-.06.13-.21.07-.06,0,0h0l0,0,0,0,.07.16,0,.05Z" />
    <path id="DZA2208" class="cls-1"
        d="M68.83,3.11l0,.19,0,.06,0,0v0l0,0,.12,0,.09.07L69,3.66l0,.07V3.9L69,4v.08l0,0-.13.09-.09,0-.18,0-.16.08,0,0,0,0,0,.06,0,.07v.07l0,.08,0,0-.13,0H68l-.17,0-.08,0-.09-.09V4.6l0-.14V4.4l0-.07,0-.06-.08-.11v0l0,0,0,0,0,0,0,0v0l0,0-.15-.12-.07-.06,0,0,0,0-.12,0h0l-.07,0-.06.07v.14l0,.05,0,0h-.08l-.14,0L66.54,4l0,0v0l0,.05.12.09,0,0v0l0,0-.09,0,0,.06,0,.06v.06l0,.06,0,0-.07.06-.07,0-.1,0h-.08l-.34,0,0-.05-.07-.16,0,0,0,0h0l0,0-.07.06-.13.21-.06.06L65.2,5,65,5l0,0,0,0,0,.18v.15l0,.07,0,.06,0,0-.29,0-.17.07h-.07l-.32,0-.1,0-.08-.07-.08-.18-.07-.31-.1-.13,0,0,.06,0,.06,0,0,0v0l0-.09V4.63l0,0V4.48l-.1-.12,0-.1L64,4.17l.13-.08.36-.41,0-.07.06-.17.2-.32,0-.08V3l0-.05,0,0-.05,0-.1,0,0,0,0,0v0l0-.08,0,0,.06,0h.12l.12.05h0l0,0,0-.06,0-.13V2.21l-.2-.3,0-.07V1.7h.15l.36,0,.35,0h.08l.79.34.09.08,0,0,.06,0h.12l0,0,0,.08,0,0,.08,0,.1,0h.19l-.1.29,0,.1.13.11.57.3.17,0h.17l.33-.05Z" />
    <path id="DZA2209" class="cls-1"
        d="M59.38,3l.15.29v.11l0,0,0,0-.08.13,0,.05-.06,0-.06,0-.52.1-.07,0-.05,0,0,.05,0,.12-.06.15-.18,0h-.12l-.08,0,0,0,0,.07,0,.07-.1.09-.12.07-.17.06-.24.15-.13.11-.08,0-.06,0H57l-.07,0-.08-.07,0-.09,0-.09,0-.06h-.07l-.05,0-.11.12-.07.06-.08,0-.1,0h-.09l-.11,0-.48,0h-.11l0-.18,0,0h0l-.12.07-.14,0-.23.09h-.09l0,0V4.8l0,0,0,0,0-.06-.05-.12,0-.23,0,0,0,0h0l.14,0h.22l.1,0,.05,0,0-.06,0-.1,0-.07.08,0,.22-.21.09-.07.08,0,.09,0,.3-.15.07-.06,0,0v0l0,0,0,0,.55,0,.07,0,0,0,0,0,.06,0,.1,0,0,0,0,0V3l0-.13V2.82l.14,0,0,.07V3l0,.09.06,0,.07,0h.06l.06,0,.06,0,.23,0L58.19,3l.28-.13.17,0h.15l.08,0,.05,0,0,.06.23.11h.05l0,0,.1-.07Z" />
    <path id="DZA2210" class="cls-1"
        d="M60.62,3.45l.14.24.15.12L61,3.9l.16.16.18.11.23.08,1.21,0,.08,0,.16-.07h.07l.21.06h.08l.21,0,.09,0,0,.1.1.12v.11l0,0v.14l0,.09v0l0,0-.06,0-.06,0,0,0-.24.31-.23.36-.11.13L62.83,6l-.07.09,0,.1-.06.22,0,.12-.07.09-.15.13,0,0,0,.1-.19.49,0,.23v.17l0,.06-.06,0-.08,0-.19-.1h-.13l-.07,0-.16.1-.1,0h-.1l-.1,0L61,7.81,61,7.75l0,0-.05,0-.06,0-.06,0-.1-.1h-.16l-.38,0-.24-.45-.07-.31V6.46l.06-.52V5.77l0-.11-.08-.25V5.25l0,0,.09-.08,0-.06V5l-.08-.15V4.62l0-.06,0,0h-.06l-.11,0h0l0,0-.16.06,0,0-.06.08h-.06L59,4.59l-.11-.15-.09-.1-.1-.06-.29-.12L58.5,4l0-.12,0-.05.05,0,.07,0,.52-.1.06,0,.06,0,0-.05.08-.13,0,0,0,0V3.24L59.38,3l.3.08h.14L60,2.93l.08,0h.12l.09,0,0,0,0,0v0l0,.06-.14.18,0,.07,0,.05,0,0,0,0h.08l.32-.06Z" />
    <path id="DZA2211" class="cls-1"
        d="M74.45,14.36h.14l.24-.07H75l0,0,0,0,0,.06.07.19,0,.1v.08l0,.24v.2l0,.21-.08.37L75,16l0,0,0,.08v.06l0,.31,0,.21-.17.15-.17.1-.17.07-.16,0h-.15l-.1,0L74,17l-.1,0-.07-.06,0-.06,0-.06,0,0-.28-.13-.78-.22h-.09l-.94.2-2.52-.32-.46-.15-.3-.14h0l0,0,0,.08v.17l-.06.06-.08,0-.21.08-.06,0,0,0,0,.06,0,.07,0,.07v.08l0,0,0,0,.35.3.18.22.15.22,0,.1.08.2,0,.22v.42l-.19,1.24,0,.13-.06.11-.21.22-.26.33-.47.8-3.46-2.07-.21-.17-.1-.11,0-.06,0-.15-.09-.6,0-.06,0-.06,0,0-.16,0-.1,0L63,18l0-.05v0l0-.09v-.21l.36,0,.06,0,.07,0,0,0v-.07l0-.06-.06-.07-.06-.07L63.21,17l-.12-.17L63,16.72l-.12-.52,0-.07,0,0,0-.05V16l.06-.11.19-.21.06-.11.06-.15.07-.11.36-.38.08-.11.15-.22.09-.1.1-.06h.17l.15,0h.06l.07,0,.2-.06.22,0,.42-.15h.07l.13,0h.08l.13,0h.06l.08,0h.08l.49-.12.13-.06.2-.15.13-.15.06-.11v-.11l0-.87h.17l.33.17.21.13.24.06h.35l.12-.06.13-.08.1,0,.1,0,.56,0,.11,0,.07,0,.07,0,0,0,.1,0,0,0,0-.05V12.3l0-.06,0,0-.2-.18,0-.07,0,0,.35-.09.42-.26.22-.11.3-.11h0l0,0,.17.15.41.17h.18l0,0v.06l0,.07,0,.06-.19.17-.06.07,0,0,.06.22v.09l-.08.18v.1l.06.09.12.1,0,.07.09.08h.09l.06,0,0,0,.07-.23,0-.08,0,0H72l.06,0,0,0,0,.07,0,.07,0,.12,0,0,.07,0h.09l.11,0h.11l0,0,0-.11,0-.06.14-.08.07,0h.21l.25-.05.11,0h.09l.08,0,.09.11,0,.08v.09l0,.05,0,.11v.39l-.06.32v.1l0,.1.06.08.08.07.15.18,0,0,.07,0,.09,0h.08l.11,0,0-.05Z" />
    <path id="DZA2212" class="cls-1"
        d="M58.91,8.59l.28.47.06.08.35.29.07,0,.11.09.58.55,0,.06,0,.08v.21l0,.09,0,.07,0,.05,0,.05,0,0,0,.06,0,.09,0,.23v.08l0,.07,0,.06-.87.75v.06l.22.47,0,.08h.09l.18-.09H60l0,0v.06l0,0,0,.06-.05,0,0,.06,0,.05v.07l0,.07.06.15,0,.06v.06l0,.12v.06l0,.08,0,.07.05.09.07.06.1.06,0,.05v.13l0,.09.06.09.08,0h.09l.16,0h.08l.73.16,0,0,0,0v.07l0,.18V15l.21.75.07.17.24.34,0,.1v.41l0,.1.1.11.42.28.07.08.13.19.08,0v.21l0,.09v0L63,18l.09.07.1,0,.16,0,0,0,0,.06,0,.06.09.6,0,.15,0,.06.1.11.21.17,3.46,2.07-.55.75-.11.61-.15.56.12,2.31-3.89-1.08,0-.19-.23-.62-.16-.32-.13-.16-.14-.16-1.88-1.66-2-2.22-.36-.61-.05-.14,0-.13-.06-.44-.12-.34,0-.06-.11-.05H57.1l0,0L57,17.38h-.13l-.08.05-.36.34-.06.07,0,.08,0,.15-.05.05-.07,0-.23.08-.43.07-.06,0,0,0,0,.05v.06l0,.63v.18l0,.14,0,0h-.2l-.38-.05H54.6l-.07,0,0-.07,0-.33v-.06l0-.14.1-.31v-.1l0-.09-.06-.14L54.45,18l-.07-.11-.18-.2-.06-.1,0-.09L54,17l0-.14,0-.1-.06-.07-.1-.1-.06-.08-.05-.16v-.21l0-.33,0-.19.07-.13.13-.15,0-.09,0-.07,0-.32.06-.49.34-.38.1-.17.22-.6.08-.16h0l.34-.11.07,0,0-.05,0-.07-.06-.07-1-.85,0,0,0,0v-.07l0-.07v-.09l0-.08L54,11.34l0-.05,0,0-.09,0h0l-.08-.05,0,0,0,0v-.66l.93-.32.24,0h0l.37.29.07,0,.08,0h.08l.09,0,.07,0,.08-.07,0-.08.09-.14,0,0,.05-.07.09-.08.57-.46,0-.06,0,0V9.16l0-.18V8.76l0-.17,0-.09V8.41l0-.06,0,0h.15l.14,0,.11,0,.06.06,0,.06,0,.14,0,.07,0,.06.1.06,0,0,0,.05,0,.16,0,0,.08,0L57.93,9l.1-.05,0,0,0-.09.07-.31.05-.1.07-.07h0l0,0,.06.12,0,.07.06.05.07,0h.07l.21,0Z" />
    <path id="DZA2213" class="cls-1"
        d="M60.11,7.55v.08l0,.12v.06l0,.05L60,8v.11l0,0-.19.07-.11.09,0,.07v.09l.06.14,0,.09v.28l0,.08,0,0L59.61,9l-.06-.06,0-.08,0-.1-.06-.11-.23-.31-.06,0,0,0L59,8.3l0,0-.07.26-.21,0h-.07l-.07,0-.06-.05,0-.07-.06-.12,0,0h0l-.07.07-.05.1-.07.31,0,.09,0,0-.1.05-.47.08-.08,0,0,0,0-.16,0-.05,0,0-.1-.06,0-.06,0-.07,0-.14,0-.06L57,8.29l-.11,0-.14,0h-.15l0,0,0,.06V8.5l0,.09,0,.17V9l0,.18v.15l0,0,0,.06-.57.46-.09.08-.05.07,0,0-.09.14,0,.08-.08.07-.07,0-.09,0h-.08l-.08,0-.07,0-.37-.29h0l-.24,0-.93.32-.17-.71.06-.27,0-.06-.05-.06-.18-.08-.08,0-.1-.12L53,9l0-.09,0-.06,0-.06.08,0h.09l.09,0,.07-.07.34-.74L54,7.6l.31-.29.06-.09,0-.08,0-.14,0-.07,0-.06,0,0L55,6.5l0-.08.06-.15.07-.11L55.32,6l0-.06v0l0,0h-.2l-.09,0h0l0,0-.11.09L54.8,6l0,0,0-.05,0,0,0,0-.08-.07,0-.07v-.1l0,0,0,0,.06-.07,0-.06,0,0,0,0h.3l.08,0,.08,0,.09-.09,0-.06V4.92h.11l.48,0,.11,0h.09l.1,0,.08,0,.07-.06.11-.12.05,0h.07l0,.06,0,.09,0,.09.08.07L57,5h.07l.06,0,.08,0,.13-.11.24-.15.17-.06.12-.07.1-.09,0-.07,0-.07,0,0,.08,0h.12l.18,0,.29.12.1.06.09.1.11.15.09.06h.06l.06-.08,0,0,.16-.06,0,0h0l.11,0h.06l0,0,0,.06v.23l.08.15v.07l0,.06-.09.08,0,0v.16l.08.25,0,.11v.17l-.06.52v.33l.07.31.24.45Z" />
    <path id="DZA2214" class="cls-1"
        d="M67,8.43l0,.06,0,0,.07.06.1.07.34.14,0,0,0,.12.08.08.13.08.75.18-.56.5-.15.08-.12,0-.18.11-.08,0-.08,0-.08,0-.09,0h-.4l-.08,0,0,0-.06.07-.12.06H66.5l-.06,0,0,0L66.33,10l0,0,0,0h-.08V10l.09.35,0,.21V11l0,.32,0,.1-.08.12-.14.17-.18.16-.08.09,0,.07v0l0,0,0,0,0,0,.36,0,.13,0,.12,0,.1.05.11.07.07.09.06.09,0,0h.17l0,.87v.11l-.06.11-.13.15-.2.15-.13.06-.49.12h-.08l-.08,0h-.06l-.13,0h-.08l-.13,0h-.07l-.42.15-.22,0-.2.06-.07,0h-.06l-.15,0H64l-.1.06-.09.1-.15.22-.08.11-.36.38-.07.11-.06.15-.06.11-.19.21L62.8,16V16l0,.05,0,0,0,.07.12.52.06.11.12.17.07.18.06.07.06.07,0,.06v.07l0,0-.07,0-.06,0-.36,0-.08,0-.13-.19-.07-.08L62.24,17l-.1-.11,0-.1v-.41l0-.1-.24-.34-.07-.17L61.53,15v-.22l0-.18v-.07l0,0,0,0-.73-.16h-.08l-.16,0H60.4l-.08,0-.06-.09,0-.09V14l0-.05-.1-.06L60,13.81,60,13.72l0-.07,0-.08v-.06l0-.12v-.06l0-.06-.06-.15,0-.07V13l0-.05,0-.06.05,0,0-.06,0,0v-.06l0,0h-.06l-.18.09h-.09l0-.08-.22-.47v-.06l.87-.75,0-.06,0-.07v-.08l0-.23,0-.09,0-.06,0,0,0-.05,0-.05,0-.07,0-.09v-.21l0-.08,0-.06-.58-.55-.11-.09-.07,0-.35-.29-.06-.08-.28-.47L59,8.33l0,0,.05,0,0,0,.06,0,.23.31.06.11,0,.1,0,.08.06.06.09.08,0,0,0-.08V8.66l0-.09-.06-.14V8.34l0-.07.11-.09L60,8.11l0,0V8l.07-.1,0-.05V7.75l0-.12V7.55l.38,0h.16l.1.1.06,0,.06,0,.05,0,0,0,.05.06.07.07.1,0h.1l.1,0,.16-.1.07,0h.13l.19.1.08,0,.06,0,0-.06V7.64l0-.23.19-.49.07,0,0,0,0,.1.12,0h.1l0,0v0l0,0,.07,0L63,7l.64.14.16,0h.12l.1,0L64.15,7l.1,0h.06l0,0,0,0,0,0,0,.1,0,.11,0,.06.05.07,0,0v0l0,0-.05,0h-.1l0,0,0,.09,0,.06,0,.06-.15.13,0,.06,0,.08.08.1.08,0,.08,0h.59l.1,0L65.39,8l.15,0h.26l.17,0h.08l0,0,.05,0,.11.16,0,0,.06,0h0l.08,0,0,0,.11.1.11.07.08,0Z" />
    <path id="DZA2215" class="cls-1"
        d="M70.32,3.76l.08.08,0,0,0,.06,0,.07v.1l0,.18v.09l.05.08.07,0h.28l.07.06,0,.11V5.3l0,.15v.11l.06.1.07,0h.15l0,.06,0,.1,0,.07-.06,0,0,0v.07l0,.09.06.06,0,0v.11l0,0,.06.07.08,0,.06.08,0,.12-.05.58,0,.09V7.6l-.14.1v.07l0,.05V7.9l0,0-.09,0L71,7.73l-.11-.08-.16-.05h-.11l-.11,0-.15.1-.07,0,0,.06,0,.07V8l0,.07,0,0,.08,0,.06.05,0,.06-.07.17-.05.07h-.07l-.19-.08-.06,0,0,0,0,0-.12,0-.09-.05-.08,0-.07,0,0,.06,0,.08,0,.08-.09,0-.25.18,0,0,0,.05V9l0,.09,0,.08-.07.09-.07,0-.07,0H68.6l-.75-.18L67.72,9,67.64,9l0-.12,0,0-.34-.14-.1-.07-.07-.06,0,0,0-.06V8.17l0-.05,0-.06.06,0h.21l.06,0,0-.06V7.87l0-.25V7.48l0-.17,0-.11L67.6,7l0-.1V6.78l0,0,0-.08V6.6l0-.12,0-.08,0,0,0,0,.07,0,.08,0,.08-.1,0-.09V5.91l0,0h0l-.05,0,0,0h0l0-.07V5.77l0-.08,0,0,0,0-.06,0-.07.05-.08,0-.09,0-.09-.08-.11-.21,0-.08,0,0-.14-.06-.14,0h-.07l-.23.08-.15,0h-.07l-.22,0h-.15l-.08-.07-.07-.1,0-.07V4.9l.06-.08.34,0h.08l.1,0,.07,0,.07-.06,0,0,0-.06V4.53l0-.06,0-.06.09,0,0,0v0l0,0-.12-.09,0-.05v0l0,0,.21-.12.14,0H67l0,0,0-.05V3.72l.06-.07.07,0h0l.12,0,0,0,0,0,.07.06.15.12,0,0V4l0,0,0,0,0,0,0,0v0l.08.11,0,.06,0,.07v.06l0,.14v.05l.09.09.08,0,.16,0h.11l.13,0,0,0,0-.08V4.56l0-.07,0-.06,0,0,0,0,.16-.08.18,0,.09,0L69,4.12l0,0V4l0-.1V3.73l0-.07.07-.11.11,0,0,.11v.07l0,.09,0,.05,0,0h.11l.06,0,0,0,.08-.08,0,0,.07,0h0l.12.09H70l.29-.12Z" />
    <path id="DZA2216" class="cls-1"
        d="M72.32,7.69l.61.2h.2l.07-.09,0,0h0l.13.13.07,0,.08,0,.24,0,0,0,0,0,0,.07v.2l0,.08H74l.09,0,.29-.11h.22l.11,0L75,8.5l.34.49,0,.29.06.26v.09l0,.08-.07.15,0,.07-.07.07-.1.05-.26.09-.09,0-.1.07-.08.08-.09.13,0,.08v.18l0,.2V11l0,.06,0,0,.07,0h0l0,0v.07l0,.08-.18.19-.06.1-.06.4-.18.32,0,.08v.39l0,.09.14.24.18.39,0,.09,0,.1,0,0-.1.21,0,.1v.08l0,.08,0,.14,0,.06,0,.05-.11,0h-.08l-.09,0-.07,0,0,0-.15-.18-.08-.07L73.73,14l0-.1v-.1l.06-.32V13.1l0-.11,0-.05v-.09l0-.08-.09-.11-.08,0h-.09l-.11,0-.25.05h-.21l-.07,0-.14.08,0,.06,0,.11,0,0h-.11l-.11,0h-.09l-.07,0,0,0,0-.12,0-.07,0-.07,0,0-.06,0h-.11l0,0,0,.08-.07.23,0,0-.06,0h-.09L71.47,13l0-.07-.12-.1-.06-.09v-.1l.08-.18v-.09l-.06-.22,0,0,.06-.07.19-.17,0-.06,0-.07v-.06l0,0h-.18L71,11.51l-.17-.15,0,0h0l-.3.11-.22.11-.42.26-.35.09,0,0,0,.07.2.18,0,0,0,.06v.11l0,.05,0,0-.1,0,0,0-.07,0-.07,0-.11,0-.56,0-.1,0-.1,0-.13.08-.12.06h-.35l-.24-.06-.21-.13-.33-.17h-.34l0,0-.06-.09-.07-.09-.11-.07-.1-.05-.12,0-.13,0-.36,0,0,0,0,0,0,0v0l0-.07.08-.09.18-.16.14-.17.08-.12,0-.1,0-.32v-.37l0-.21L66.16,10V9.93h.08l0,0,0,0,.09.11,0,0,.06,0h.07l.12-.06.06-.07,0,0,.08,0h.4l.09,0,.08,0,.08,0,.08,0,.18-.11.12,0L68,9.79l.56-.5h.14l.07,0,.07,0L69,9.15l0-.08L69,9V8.73l0-.05,0,0,.25-.18.09,0,0-.08,0-.08,0-.06.07,0,.08,0,.09.05.12,0,0,0,0,0,.06,0,.19.08h.07l.05-.07.07-.17,0-.06-.06-.05-.08,0,0,0,0-.06V7.93l0-.07,0-.06.07,0,.15-.1.11,0h.11l.16.05.11.08.21.16.09,0,0,0V7.82l0-.05V7.7l.14-.1.19.06.06,0,.19,0,.4,0Z" />
    <path id="DZA2217" class="cls-1"
        d="M76.14,4.5l0,0,.06.14,0,.09v.07l0,.06.09.06,0,0v.22l0,.08.1,0,0,0,0,.06v.23l0,.15,0,.11-.14.24-.13,0h-.1l-.07,0-.14.14-.1.07h0l0-.05V6.3l0-.08L75.41,6h-.07l-.06,0,0,0-.06,0-.05,0-.24.06-.08,0-.09.06-.23.1,0,.08,0,0h-.06l-.12-.16L74.1,6.1l0-.23,0-.06-.25-.36L73.43,5l-.07,0h-.14l-.06,0,0-.06,0-.07,0-.05.09-.07.1,0h0l.11,0,.32,0,.06,0,0-.07,0-.09-.06-.16V4.12l0,0,.07,0L74,4l0-.1,0-.27h.17l.2,0,.09,0,.26-.2h0l0,0,0,0,0,.05.26.12.21.06.56,0H76l0,0v.1l0,0,0,0h0l-.06,0h-.11l-.07,0,0,0v.24l-.06,0,0,0v0l0,0,0,0h.07l.08,0Z" />
    <path id="DZA2218" class="cls-1"
        d="M79.59,3.11l.23,0,.05,0,.16.14,0,.07,0,.06,0,.09,0,.06.06,0,.87.37,0,0,0,0,0,0,0,.05-.56.31h-.14l-.2-.06h0v0l.07.18v.18l0,.06.06.09,0,.09,0,.12-.08.06-.09,0-.08,0H80l-.48.25-.48.16,0,0-.07.1-.06,0-.06,0h-.1L78.43,6l-.06,0-.05.06-.06.13,0,0,0,0H78l-.18-.09-.24,0-.08,0,0,0,0,.06V6.5l-.06.11-.1.07-.2.1-.13,0-.13,0-.06,0,0,0v0l0,0,0,0-.06-.05,0-.06,0-.08,0-.08V6.17l.14-.24,0-.11,0-.15V5.44l0-.06,0,0-.1,0,0-.08V5l0,0-.09-.06,0-.06V4.78l0-.09-.06-.14,0,0,.11-.2.12-.07.37-.11,0,0,0,0V4l0,0V3.9l0-.08.12-.15L77,3.58l.54-.29.13,0,.12,0h.08l0,0,0,0L78,3V2.92l.06-.08,0,0,.09-.06.08,0,.36.2,0,.06,0,.09V3.2l0,.06,0,0,.08,0,.11.06.07,0,.07,0h.07l.14,0,0,0,0,0,0,0,0,0,.1-.16Z" />
    <path id="DZA2219" class="cls-1"
        d="M79.08,10.39l-.12.12-.45.18-.07.07v.06l0,.07V11l0,.2v.27l-.06.12v.09l0,.09,0,.1,0,.11,0,.16,0,.12-.07.11-.29.32-.18.24-.15.15-.16.24,0,.07v.3l0,.05,0,.08v.06l0,.05,0,.11,0,0h0l0,0V14l0-.08v-.1l0-.06v0l0-.07v-.15l0-.08v0l.09,0,0,0,.05-.1,0,0h0l.09,0h.09l.06,0,0,.05,0,.06v.25l0,.08,0,.08,0,.32v.06l.07.22v.18l0,.11-.11.27-.09.17-.19.26-.09.22,0,0-.06.06,0,.09-.09.27,0,.19-.08.54-.11.43-.34.79-.57-.1-.27-.09-1-.62L75.06,17,75,16.72l0-.21,0-.31v-.06l0-.08,0,0,.07-.24.08-.37,0-.21V15l0-.24v-.08l0-.1-.07-.19,0-.06,0,0,0,0h-.19l-.24.07h-.14l0-.06,0-.14,0-.08V14l0-.1.1-.21,0,0,0-.1,0-.09-.18-.39-.14-.24,0-.09v-.39l0-.08.18-.32.06-.4.06-.1.18-.19,0-.08V11.1l0,0h0l-.07,0,0,0,0-.06v-.09l0-.2v-.18l0-.08.09-.13.08-.08.1-.07.09,0,.26-.09.1-.05.07-.07,0-.07.07-.15,0-.08V9.54l-.06-.26,0-.29.09.14.06.12,0,.05.07,0,.13,0h.1l.58-.08h0l.06,0,.1.2.07.07h.16l.09-.05L77,9.5l0-.08.06,0h0l.27,0h0l0,0,0-.06h.13l.09,0,.1.05.07.07,0,.12v.21l0,.06h.09l0,0,.05-.09,0-.06,0,0,.07,0,.07.05.12.17.06,0,0,0,0,0h0l0,0,0,.17,0,0,0,.05.14.09.11.14Z" />
    <path id="DZA2220" class="cls-1"
        d="M73.81,3.62H74l0,.27L74,4l0,.06-.07,0,0,0V4.2l.06.16,0,.09,0,.07-.06,0-.32,0-.11,0h0l-.1,0-.09.07,0,.05,0,.07,0,.06.06,0h.14l.07,0,.44.45.25.36,0,.06,0,.23h0l-.08,0-.07,0-.15.09-.12.11-.07.09,0,.12v.28l0,.09L73.43,7l-.13.1-.25.11-.32.09-.22.05-.09,0-.06,0,0,.06,0,0v.16l-.4,0-.19,0-.06,0-.19-.06V7.41l0-.09.05-.58,0-.12-.06-.08-.08,0-.06-.07,0,0V6.28l0,0-.06-.06,0-.09V6l0,0,.06,0,0-.07,0-.1,0-.06h-.15l-.07,0L71,5.56V5.45l0-.15V4.69l0-.11-.07-.06h-.28l-.07,0-.05-.08V4.29l0-.18V4l0-.07,0-.06,0,0-.08-.08.19,0h.06l.09,0,.07,0,.12,0H71l.17,0,.1,0,0,0,0-.07,0-.07.07-.05.18-.08h.17l.17,0,.26,0,.19,0h.24l0,0,.06-.07,0,0,.11,0L73,3.35h.07l0,.08,0,0,0,0,.62.13Z" />
    <path id="DZA2221" class="cls-1"
        d="M76.49,6.17v.17l0,.08,0,.08,0,.06.06.05,0,0,0,0v0l0,0,.06,0,.13,0,.13,0,.2-.1.1-.07.06-.11V6.32l0-.06,0,0,.08,0,.24,0,.18.09v.29l.21.46.14.21.09.09.17.2.08.06.07,0,.2.05.07,0,0,.07.07.21.07,0h.31l.09,0,0-.05V7.89l0,0,.08-.08,0-.07,0-.09,0-.07.08,0h.12l.09,0,.09,0,.33.35,0,.1V8.1l0,.07,0,.05-.18.44V9l.08.25,0,.11,0,.09-.08,0-.08,0-.08,0-.08,0-1.11.86L79,10.25l-.14-.09,0-.05,0,0,0-.17,0,0h0l0,0,0,0-.06,0-.12-.17-.07-.05-.07,0,0,0,0,.06-.05.09,0,0H78l0-.06V9.6l0-.12-.07-.07-.1-.05-.09,0h-.13l0,.06,0,0h0l-.27,0h0l-.06,0,0,.08-.08.08-.09.05h-.16l-.07-.07-.1-.2-.06,0h0l-.58.08h-.1l-.13,0-.07,0,0-.05-.06-.12L75.32,9,75,8.5l-.24-.18-.11,0h-.22l-.29.11-.09,0H74l0-.08v-.2l0-.07,0,0,0,0-.24,0L73.5,8l-.07,0-.13-.13h0l0,0-.07.09h-.2l-.61-.2V7.53l0,0,0-.06.06,0,.09,0,.22-.05.32-.09.25-.11.13-.1.09-.09,0-.09V6.55l0-.12.07-.09.12-.11.15-.09.07,0,.08,0h0l.15.17.12.16h.06l0,0,0-.08.23-.1.09-.06.08,0,.24-.06.05,0,.06,0,0,0,.06,0h.07l.45.27,0,.08v.09l0,.05h0l.1-.07.14-.14.07,0h.1l.13,0Z" />
    <path id="DZA2222" class="cls-1"
        d="M82.58,7.27l-.19-.07-.08-.06-.06-.06h0l0,0,0,0h-.21l-.09,0-.15,0-.21,0-.17,0-.05,0-.06,0,0,.1,0,.05-.07.06-.18.09,0,0,0,.06,0,.08-.1.13-.33-.35-.09,0-.09,0H80l-.08,0,0,.07,0,.09,0,.07-.08.08,0,0V8l0,.05-.09,0h-.31l-.07,0-.07-.21,0-.07-.07,0-.2-.05-.07,0-.08-.06-.17-.2-.09-.09-.14-.21L78,6.62V6.33h.16l0,0,0,0,.06-.13.05-.06.06,0,.31-.07h.1l.06,0,.06,0,.07-.1,0,0,.48-.16L80,5.34h.17l.08,0,.09,0,.08-.06,0-.12,0-.09-.06-.09,0-.06V4.67l-.07-.18v0h0l.2.06h.14l.56-.31.07.15,0,.28,0,0h.13l.08,0,.06,0,.07,0,.07,0,0,0,.1-.15L82,4.24l.09-.07,0,0h0l.2.08.42,0,.09,0,.09,0,.08,0,0,.11v.37L83,5l-.23.65,0,.24,0,.12,0,.11v.11l0,.11-.06.1-.1.44V7.2l0,.07Z" />
    <path id="DZA2223" class="cls-1"
        d="M82.58,7.27l-.11.38,0,.48,0,.26.06.2.23.39.08.2.07.68V10l-.18.42,0,.21v.22l0,.24.11.21.2.09.2.06.16.13,0,.12-.3.45-.23.25-.07.21-.08.45-.12.31,0,.23v.22l.09.59v.08l0,.07-.15.16-.06.09v.09l.12.2,0,.06-.18.11,0,0,0,.1,0,0,0,0L82,15.6l-.24.22-.45.21-.21.14-.42.19-.18.14-.1.2-.18.7,0,.09-.06.07-.1.05-.3.05-.19.1-.13.13-.12.17-.2.21-1,0-.28,0-.33-.11L77.09,18l.34-.79.11-.43.08-.54,0-.19.09-.27,0-.09.06-.06,0,0,.09-.22.19-.26.09-.17.11-.27,0-.11v-.18l-.07-.22v-.06l0-.32,0-.08,0-.08v-.25l0-.06,0-.05-.06,0H78l-.09,0h0l0,0-.05.1,0,0-.09,0v0l0,.08v.15l0,.07v0l0,.06v.1l0,.08V14l0,0h0l0,0,0-.11,0-.05V13.8l0-.08,0-.05v-.3l0-.07.16-.24.15-.15.18-.24.29-.32.07-.11,0-.12,0-.16,0-.11,0-.1,0-.09v-.09l.06-.12v-.27l0-.2v-.09l0-.07v-.06l.07-.07.45-.18.12-.12,1.11-.86.08,0,.08,0,.08,0,.08,0,0-.09,0-.11L80.43,9V8.66l.18-.44,0-.05,0-.07V8l0-.1.1-.13,0-.08,0-.06,0,0,.18-.09.07-.06,0-.05,0-.1.06,0,.05,0,.17,0,.21,0,.15,0,.09,0h.21l0,0,0,0h0l.06.06.08.06.19.07Z" />
</svg>