<svg id="Layer_1" data-name="Layer 1" xmlns="http://www.w3.org/2000/svg" viewBox="0 0 100.1 100.2"><defs><style>.cls-1{fill:#6aadd6;}.cls-1,.cls-10,.cls-11,.cls-12,.cls-13,.cls-14,.cls-15,.cls-16,.cls-17,.cls-18,.cls-19,.cls-2,.cls-20,.cls-21,.cls-22,.cls-23,.cls-24,.cls-25,.cls-26,.cls-27,.cls-28,.cls-29,.cls-3,.cls-30,.cls-31,.cls-32,.cls-33,.cls-34,.cls-35,.cls-36,.cls-37,.cls-38,.cls-4,.cls-5,.cls-6,.cls-7,.cls-8,.cls-9{stroke:#000;stroke-miterlimit:10;stroke-width:0.1px;}.cls-2{fill:#eff3ff;}.cls-3{fill:#a0cbe2;}.cls-4{fill:#a8cee4;}.cls-5{fill:#56a0ce;}.cls-6{fill:#dee9f8;}.cls-7{fill:#165da6;}.cls-8{fill:#4997c9;}.cls-9{fill:#bed7ec;}.cls-10{fill:#2878b9;}.cls-11{fill:#3e8ec4;}.cls-12{fill:#539ecd;}.cls-13{fill:#eaf0fd;}.cls-14{fill:#85bcdc;}.cls-15{fill:#084594;}.cls-16{fill:#2070b4;}.cls-17{fill:#73b2d8;}.cls-18{fill:#bbd6eb;}.cls-19{fill:#d1e2f3;}.cls-20{fill:#10529e;}.cls-21{fill:#e0eaf9;}.cls-22{fill:#b4d3e9;}.cls-23{fill:#b1d2e8;}.cls-24{fill:#1f6db2;}.cls-25{fill:#67abd5;}.cls-26{fill:#3484bf;}.cls-27{fill:#e3ecfa;}.cls-28{fill:#ccdff1;}.cls-29{fill:#4e9acb;}.cls-30{fill:#4292c6;}.cls-31{fill:#4494c7;}.cls-32{fill:#1962aa;}.cls-33{fill:#3080bd;}.cls-34{fill:#145aa4;}.cls-35{fill:#c5daef;}.cls-36{fill:#a3cce3;}.cls-37{fill:#0d4d9a;}.cls-38{fill:#7cb7da;}</style></defs><path id="DZA2143" class="cls-1" d="M52.2,46.7l.2,3v1.1L52.1,52l-.6,6.9h-.1v.2h-.1l-.2.2-.2.2-.3.3h-.7l-.3.4H47.2l-.3.2-.4.2h-.3l.4.4.7,1h.2v.9h.1l.8.7h.1V83.3l.2.3,10.7,6.3.5.4.4.6v8.8h0l-1.2.3H58l-.3-.3h-.2v-.2h.1V95.9h-.4l-.3-.2-.6-.3L55,94.9H53.7l-.2-.3-.2-.2-.2-.2-.3-.3h-.4v.2H50.7l-.6-.5h0V92l-.4-.2h-2V89.7h0v-.3h-.1l-.9-.7-.9-.6-.4-.3-2.1-1.5-.8-.6-1.7-1.1-.9-.6-1.2-.9L37.4,82l-1.2-.9-.4-.3-.9-.6-.4-.3L33.2,79l-.8-.6-1.3-.9-1.2-.9-2.1-1.5-.9-.6-.3-.3-.8-.5-1.2-.8-1.9-1.4-.8-.6-1.1-.8-.6-.4-.7-.5-.8-.5-.8-.6L16.2,67l-.8-.6-.7-.5h0l13-9.1-3.8-7.5h1l.9.4.5.4,1.2.6,1,.2,1.1-.5.7-.4,1.6-1.2.6-.4.5-.2,4.5-.8.6-.4,3-4.1L44,37.4l1.7-1.9.5-.3.9-.6L52.2,32v4.5l-.6,4.3.7,5.9Z"/><path id="DZA2144" class="cls-2" d="M38.9,10.6h-.5l-.2.2h-.4v.2h-.4l-.2.2H37l-1.1-.6h-.2V11h-.2v-.2H36V9.9h.1V9.2h.3V8.9h0l.2.3v.2h.2l-.2.2h.5l1-.3h.3l.2.2h-.1Z"/><path id="DZA2145" class="cls-3" d="M41.5,7.9h0l-.2.3-.2.3h-.7l-.3.2h-.4v.2h-.4v.3h-.3v-.2H39l-.2-.2h-.3l-1,.3H37l.2-.2H37V9.2l-.2-.3H38V8h1.1V8h.3l.2-.5h1.7Z"/><path id="DZA2146" class="cls-4" d="M41.3,11.9h.1v.2l.3.3h0v.2h-.1l-2,1.7v-.2h-.9l-.3.3H36.7v-.2l.2-.2.8-.7h.3v-.5h-.6v-.2h-.4v-.2h.1l-.3-.2h-.1l.2-.2h.4v-.2h.4l.2-.2h.5v.2h.3v-.3h1l.8.3h.1v.2Z"/><path id="DZA2147" class="cls-5" d="M37.2,12.1h.1l.3.2h-.1v.2h.4v.2h.6v.5h-.3l-.8.7-.2.2v.2H34.9l-.8.5H34l-.4-1.1v-.3l-.2-.2.5-.6h-.2L33,15h.1l.2-.4v-.3h0l-.5-.3h-.1l-.3-.2h-.7l-.2-.2h-.2v-.4h1.4l.5-.2h.4l.2-.2h.4l.6-.4h.9v.2h.2L37,12Z"/><path id="DZA2148" class="cls-5" d="M44,37.4l-2.9,5.4-3,4.1-.6.4-4.5.8-.5.2-.6.4-1.6,1.2-.7.4-1.1.5-1-.2L26.3,50l-.5-.4-.9-.4h-1l-7.3,2L13,43.7h1.2l.2.5h.9l.5-.7.4-.7.4-.6.4-.5.5-.4.6-.5.4-.3.5-.2.7-.4.7-.5.5-.7.5-.3L22,38h.7l.8-.2.9-.5v-.7l.2-.2.3-.4-.3-.5h-.4v-.2h-.2l-.2.2h-.1v-.6h.1l.2-.2h.4V32h.7l1.4-.3,1.1-.3h.8l-.2-.6-.3-.9H29l.9-.2h6.3v-.2h1.2v.4H38l3.9-1.2-1.7,5.1v.5l1,1.2L44,37.4Z"/><path id="DZA2149" class="cls-6" d="M39.7,17.1v.2h0v.2h0l.4.7v.3h.5v-.3h1.7v.2l-.2,1.2v3.1l-.3.9v.6h0v1H42l-.4,1.1v.2h.5v.7L38,29.4h-.4V29H35.9V28h.7l.3-.3H37L35.7,26h-.5l-.7-1.1.2-.2h.2v-.2h-.2v-.2h-.1v-.4l-.2-.2v-.8h.2v-.4h.2v-.2l-.3-.5h-.2v-.7l.2-1h.1l.8-.5h3.6l.3-.3h.9v.2Z"/><path id="DZA2150" class="cls-7" d="M23.9,49.3l3.8,7.5-13,9.1h0l-.7-.4-1.6-1.1-1.8-1.1-1-.7L8.7,62l-1-.6-.9-.7-2-1.2-.9-.6-1-.7L2,57.6,1,57l-.9-.7V48.7H.2l.6-.3.3-.2h.2l.2-.3h.3l.3-.3.4-.2.5-.2.2-.2.4-.4.5-.3.3-.3h.3l.3-.3H6.5l.4-.5.6-.2h.9l.8.3.4-.4h.7l.7-.2h2l3.6,7.6Z"/><path id="DZA2163" class="cls-8" d="M79.7,1.3h0v.5h-.2v.2h-.1v.2h-.9l-.4-.2V1.6h-.2L77.3.2h1.2l.2.2h1.1v.2Z"/><path id="DZA2164" class="cls-9" d="M81.6,3.7h-.7V3.7h-.1l-.9-.4h-.2l-.2-.2h-.3V2.5h.1V2.2h.2V1.4h1.6L82,.9h1.2l.5-.2v.2h0v.2h-.8v.5h-.1l-.6.3-.3.2h-.1v.4Z"/><path id="DZA2165" class="cls-5" d="M73.4,3.2,72.7,3H69V2.2h1.5l.8-.2.8-.3h.4v.2h.4v.2l.3.3h.3v.5Z"/><path id="DZA2166" class="cls-10" d="M77.3.2h0l.2.9h.2v.7h-.2v.2h-.4l-.5.3h-.1v.2h-.6V4H74.3l-.3.2h-.6V2.7h-.3l-.3-.3V2h-.4V1.2h-.1V.8h.1l.2-.2h.9l.2.2h.1V.7h1.9l.4-.2h.9L77,.3h.3Z"/><path id="DZA2188" class="cls-11" d="M98.8,74H84v-.2l-.2-.2-.2-.4H82.3l-.2-.2h-.3v-.2H80.1l-.3-.3h-.2l-.2-.2h-2v-.2l-.2-.2H77l-.3-.2h-.2v-1h0v-.3h0l.3-.3h-.3L76,66V64.7h-.1l-1.2-.4h-.3l-.5-.2h-.1l-1.1-1.4h0l-.5-.3H72v-.2h.1l.4-1h-.1v-.2l-.2-.2-.9-.7-.2-.2h-.1l-.5-1.8V55.4l.3-.3.4-.2,1.2-1.2,1.3-.5.2-.2v-.6l-.2-.5-.3-.3-2.4-1.9,2.3-1.3,1.8-.8h.7l1,.2,10.8-6.6.2.3.6.9.6,1.1.4,1.4.4,1.3V49l-.3,1.9v.4l.7,1.8v.3l-.4,1.1h-.2l-.2.3h-.1v.5h0l.4,1.4v.6h.4v.8H90v.2l-.2.7h-.1l-1.7.8h-.2V62h-.1v.6l.7.9.7,1.1,1.4,1.8.2.4v2.7l.8.4h0v.7h.1l.6.5h.3l1.1-.4H94l.9.4,2.9.9H98v.2l.7,1.4Z"/><path id="DZA2189" class="cls-12" d="M70.9,49.7l2.4,1.9.3.3.2.5V53l-.2.2-1.3.5-1.2,1.1-.4.3-.3.3v1.4l.5,1.8H71l.2.2.9.7.2.2v.2h.1l-.4,1H72v.2h.1l.5.3h0l1.1,1.4h.1l.5.2h.3l1.2.4h.1V66l.5.7h.3l-.3.3h0V68h0v1h.2l.3.2h.1l.2.2v.2h2l.2.2h.2l.3.3h1.6v.2h.3l.2.2h1.2l.2.4.2.2v.2H98.8l.5,1.1.8,1.4-.4.2-1,.7-1,.6-1.3.9-.6.4-1,.6-1.3.9-1,.6-1.3.8-1,.7-1,.6-1.7,1-.6.5-1.3.8-.4.2-1.3.8-1.6,1.1-.7.4-.3.2-.7.4-.3.2-.7.5-.3.2-1,.6-1.1,1-1.1.9-.2.2-1.2,1.1-.6.5-.6.6-.3.3L72,96.1l-.6.6-1,.9h-.5l-1.1.2-2.6.6-3.6.7-2.1.4h0V90.9l-.4-.6-.5-.4L48.7,83.6l-.2-.3V65.8h-.1l-.8-.7h-.1v-.9h-.2l-.7-1-.4-.4h.3l.4-.2.3-.2h2.4l.3-.4h.7l.3-.3.2-.2.2-.2h.1V59h.1l.6-6.9.3-1.2V49.7l-.2-3,4.4-.5,4,3.2,4.5.5,5.8-.2Z"/><path id="DZA2190" class="cls-13" d="M48.6,18.1l.2.5h.7l.7.2h.6v.2l.3.7.7,1v.8l-.2.2h.2v.4H52v.2h.2l.4.6.2.4.2,1,.2.2v2.1l.2.5v1.1l-.4.6v.4h0v.3h-.2l-.4.3V32l-5.1,2.6-.9.6-.5.3L44,37.4,41.3,35l-1-1.2v-.5l1.7-5.1v-.7h-.5v-.2l.4-1.1h.1v-1h0v-.6l.3-.9V19.6l.2-1.2V18h.1v-.2h1l.2-.2h0l1.1-.7h0l.4-.2h.3l1,.3.2.2h.1v.7h1.2v.2l.3.4Z"/><path id="DZA2191" class="cls-14" d="M74.5,16.3v.3h.1l1.1.6h.8l.4.2h1.5v1.7h0l.2.3v.5l.6,1.2v1.4h.6l.6.4h.5l.4.8.5.7V27l.2.2.6.3.7.6,1.1.7.8.6h.1V30H76.8l-.7-.2-.4-.5-.4-.5-.6-1.1-.2-.5-1.1-3.7-.4-1-.9-.3-5.8-.4.6-.7.5-.8.2-.4.2-.2h.1l.2-1.3v-.3h0v-.4h-.1V17l-.2-.2-.4-.3h1.4l2.5.4,1-.2h.1l.7.2h1.6Z"/><path id="DZA2192" class="cls-15" d="M66.2,25.2,65,27l-.9.9-.7.4v.2h-.1l-.2.3-.2.5-.4.8-.4,1-.3,1.4-1.2,8.8-.4.7-.6.5-.3.4-.3.4-.4,1.5-.2.3-1.7,1-4.4.5-.7-5.9.6-4.3V31.8l.4-.3h.2v-.3h0v-.4l.4-.6V28.6l-.2-.5V26l1.7-.3.6-.2h2l.4.2h.5l.2-.3h.1l1.5-.7h.7l1.4-.3,3.9,1.1Z"/><path id="DZA2193" class="cls-2" d="M62.3,24.1l-1.4.3h-.7l-1.5.7h-.1l-.2.3h-.5l-.4-.2h-2l-.6.2-1.7.3-.2-.2-.2-1-.2-.4-.4-.6H52v-.2h-.1V23h-.2l.2-.2v-.8l-.7-1-.3-.7v-.2h-.6l-.7-.2h-.7l-.2-.5L50,17h.1v-.2h.1v-.2l.3-.3v-.2H51l.6-.2h.1l.5-.4.5-.3h.8v.3h-.2v1.1h.2v.7h.1l.2.2h.2v.5h0v.3h.9V18h1l.4-.3h.8v.8h0v.2l.3.6,2,2.2,1.9,1.7h.1l.2.2v.3l.3.6v.2Z"/><path id="DZA2194" class="cls-16" d="M86,30v.7l.2.6V32l.3,1.2v.6l.2.7v.6l.3,1.2V37l.3,1.2.4,1.9-1.1.6v.2l.3.3L76.7,47.8l-1-.2H75l-1.8.8-2.3,1.3-5.8.2-4.5-.5-4-3.2,1.7-1,.2-.3.4-1.5.3-.4.3-.4.6-.5.4-.7,1.2-8.8.3-1.4.4-1,.4-.8.2-.5.2-.3h.1v-.2l.7-.4L65,27l1.2-1.8V21.7l5.8.4.9.3.4,1,1.1,3.7.2.5.6,1.1.4.5.4.5.7.2H86Z"/><path id="DZA2195" class="cls-14" d="M57.5,2.2l.2.3h-1V2.2h-.3V1.9h1Z"/><path id="DZA2196" class="cls-12" d="M61.7,1.2v.3h0l-.2.2H60.2V3h-.4V2.7H57.7l-.2-.3h2.3l.3-.3h1.6Z"/><path id="DZA2197" class="cls-13" d="M64.3,1.3h.1l.2.3h0v.2h-.3l-.2.3v.2H64l-.3.4h-3V3.4h-.1l-.2-.2V2.8h1.2l.2-.2h0V1.2h2.6Z"/><path id="DZA2198" class="cls-17" d="M56.5,1.7h0v.2h.3v.2h-1l-.3.2h-.2l-.3.2h-.8v.2h-.9L52.5,4H50.4l-.2-.2V4h0V3.7h.1V3.4h1.8l1.2-.3h1.5l.5-.4h.4l.2-.2H56l.3-.2Z"/><path id="DZA2199" class="cls-18" d="M54.1,4.1h.8v.2h-.4V6h-.1l-.5.3h-.2l-.3.3-.2.2H51l-.2-.2h-.4V6.6l-.2-.3h-.3V5h0V4.8h-.1V4.5h0l.4-.3h.1v.2l.2.2h2.1l.7.2Z"/><path id="DZA2200" class="cls-19" d="M50.3,3.4v.2h-.1v.2H50l-.4.3h0v.2h.1V5h0v.2h.3l.2.3v.2h-1V7h-.9V6.9h-.2l-.4.2H46.7V6.3h0V5.7h0V5.5h-1l.2-.5h4.6Z"/><path id="DZA2201" class="cls-12" d="M43.2,8.5h.2V9h2.8l-.2.3H45l-.2.3-.2.3v.3H42.8v-.2H41.3v-.2h-.1l-.8-.3h-.6V9.7h.4l.3-.2h.7l.2-.3.2-.3h1.2v.2h.4Z"/><path id="DZA2202" class="cls-20" d="M45.5,5.5v.2h-.1l-.2.2h0v.2h-.3v.2h-.4v.2h.1v.3h-.6l-.2.2h-.6V8.3h-.8l.2-.2h.2V7.1h.1V6.4h.1l.3-.3h.1l.3-.2h.9l.4-.3h.9l-.2.5Z"/><path id="DZA2203" class="cls-21" d="M48.9,7.6h0v.2h-.6v.2h0v.4h-.7l-.2.2h-.5l-.3.4H43.5V8.6h0l.2-.2h.6V7.3h-.1V6.9h.4V6.4H45V6h0l.2-.2h.1V5.5h1v.2h0V6h0v.2h1.1l.4-.2h.2v.2h.4Z"/><path id="DZA2204" class="cls-22" d="M44.5,12.1h1.3l-.4.4h-.1v.2h.1v.4l.7,1.3h-.7l-.4.2h0l-1.1.7h0l-.2.2h-1v.2h-.1v.2H40.8v.3h-.5v-.3l-.4-.7h0v-.2h0v-.2l2-1.7h.1V15h0l-.3-.3v-.2h1.4v.2h1.7Z"/><path id="DZA2205" class="cls-23" d="M53,9.3l.2.7v.7h.4l1.1.9h-.4v.2l-.2.6h-.1l-.3.4v.5h-.8l-.5.3-.5.4h-.1l-.6.2h-.2V16l-.3.3v.2h-.1v.2H50l-1.4,1.1-.3-.4v-.2H47v-.7H47l-.2-.2-1-.3h.4l-.7-1.3v-.4h-.1v-.2h.1l.4-.4H44.5v-.3l.2-.3.2-.3h1.1l.2-.3h.1l.3-.4h.5l.2-.2H53Z"/><path id="DZA2206" class="cls-24" d="M50.4,7.1h.4l.2.2h2.3l-.4.8h-.3v.2H53v.3H48.1V8.4h0V8.1h.6V7.7h.5V6.8h1Z"/><path id="DZA2207" class="cls-25" d="M65.3,4.4h1.4v.2h.4v.2h-.1v.2h0l-.2.2h0v.4h-.4V8H64.9l-.3.2H63.1l-.6-.2h-.3V5.8h.1l.2-.2h.1l.2-.4.3-.3h.1v.5h1.5V4.2h.3Z"/><path id="DZA2208" class="cls-26" d="M68.4,2.7H65v.2H63.4V4.7h.4l.3-.4h.1V3l.2-.3h.3V1.9h0l-.2-.3h.9l.8.3h.7v.3h.2l.5.3h1Z"/><path id="DZA2209" class="cls-19" d="M58.9,2.5l.2.3h-1v.2H56.9l-.2.2H55V4.3h-.8V3.9h.8l.3-.2h.2l.3-.2h3.2Z"/><path id="DZA2210" class="cls-27" d="M60.2,3v.2l.2.2h.1v.2h2.5l-.3.3-.2.4h-.1l-.2.2h-.1V6h-.3l-.2.5v.2h-2l-.3-.4V6.3h0V5.3h0V5H58V3.4h1l-.2-.3h1v.2h.4Z"/><path id="DZA2211" class="cls-28" d="M74,13.9h.7v.2h.1v1.3h-.1v.5H72.9l-.7-.2h-.1l-1,.2-2.5-.4H67.2l.4.3.2.2v.2H68v.4h0v.3l-.2,1.3h-.1l-.2.2-.2.4-.5.8-3.5-2.1-.2-.2h-.1v-.8h-.5v-.2h.3l-.2-.2h0v-.5h-.1l.2-.2h.1v-.2h.1l.3-.4h.1l.2-.2h2.1l.5-.2h.1l.2-.2h.2v-.9h.2l.3.2h2.2l-.2-.2h.3l.5-.3h.6l.2.2h.2V12h.4v-.2h1.9v.6h.2l.2.2H74Z"/><path id="DZA2212" class="cls-29" d="M58.5,8.1l.2.5h.1l.3.3h.2l.6.6h-.1v.2h-.1l-.9.8h0l.2.5h.4v.2h.8l.7.2h.1v.2h0l.2.8v.2l.2.3h.2l.4.3h.1v.2h.1v.2H63v.8h.1l.2.2L66.9,21l-.6.7v3.5l-3.9-1.1v-.2l-.3-.6V23l-.2-.2h-.1L59.7,21l-2-2.2-.3-.6V18h0v-.8h-.8l-.4.3h-1v1H54v-.3h0V18h-.2l-.2-.2h-.1v-.7h-.2V15h.2v-.8l.3-.4H54l.2-.6v-.2h.4l-1.1-.9h-.4V10l.9-.3h.2l.4.3h.5V9.6h.2l.6-.4h0V8.5h0V8.1h1.6V8h.8Z"/><path id="DZA2213" class="cls-30" d="M59.7,7.1h-.4v.2h-.4l-.2-.3h-.2v.2h-.8v.3H56.1v.2h0v.2h0l-.6.4h-.2v.2h-.5l-.4-.3h-.2l-.9.3L53,9.3V9h-.3V8.6h.3l.4-.8.2-.2.3-.3H54l.5-.3h.1V5.8h2.1l.2-.2h2.4v.2h0v.9h0v.4l.3.4Z"/><path id="DZA2214" class="cls-31" d="M66.6,8h1.5l-.5.5H65.7v.8h0v.3h-.1l-.2.2-.2.2h1.2V13h-.2l-.2.2H66l-.5.2H63.4l-.2.2h-.1l-.3.4h-.1v.2h-.1l-.2.2h.1v.5h0l.2.2h-.4v-.2h-.1l-.4-.3h-.2l-.2-.3v-.2l-.2-.8h0v-.2H61l-.7-.2h-.8v-.2h-.4l-.2-.5h0l.9-.8h.1v-.2h.1l-.6-.6h-.2l-.3-.3h-.1l-.2-.5V7.9h.2l.2.3h.4V8.3h2.4V7l.2-.5h.6l.6.2h1.5l.3-.2h1.7Z"/><path id="DZA2215" class="cls-32" d="M69.9,3.3h.6V5h.6v.6h0v.2H68.9l-.3.2h0v.2h-2V7.7H67V7h0l.2-.2h0V6.3h.1V6h-.4V5h3.2Z"/><path id="DZA2216" class="cls-33" d="M71.9,7.2l.6.2h.3l.2.2h1.5l.4.5v.6H74v.4h.1V11h-.1v.7h-.1v.2h.1v.2l.2.4h0v.2h-.3l-.2-.2h-.2v-.6H71.4v.2h-.4v-.3h-.2l-.2-.2h-.6l-.5.3H69l.2.2H67l-.3-.2H65.3l.2-.2.2-.2h.1v-.3h0V9.6h1.9l.5-.5h.5V8.3h0l.3-.2h3Z"/><path id="DZA2217" class="cls-34" d="M75.7,4h.5v.4h0l-.2.2h-.6L75,5.5H73.9V5.8h-.2V5.4h0L73.4,5,73,4.5h.5V3.7h.2V3.2H74l.3-.2h1.4Z"/><path id="DZA2218" class="cls-32" d="M79.1,2.7h.3l.2.2h.2l.9.4h.1l-.6.3h-.4v.2H80v.2h-.4l-.5.2-.5.2H77v.2H76l.2-.2h0V5h-.5V3.8h.6V3.2h.1l.5-.3h.4V2.5h.2l.4.2h.9Z"/><path id="DZA2219" class="cls-35" d="M78.6,9.9v.2H78v.2h0v.2h-.1l-.3.3-.2.3h-.1l-.2.2h.8v.3h.1v.2h0v.3h-.1l-.2.3v.2h-.1v1.4l-.4.8h-.8l-1.1-.6h-.1v-.8h.1V14.3h-.1v-.2h-.8v-.2h0l-.2-.4v-.2h-.1V12h.1v-.7H74v-.2H74v-.4h1V8.7h1.1v.2h1.3v.3h.8v.2h.3Z"/><path id="DZA2220" class="cls-36" d="M73.4,3.2h.2v.2h-.2v.2H73l.4.5.3.4h0v.3h-.5v.2H71V7h0V6.3h-.6V4.2h2.2l.7.2Z"/><path id="DZA2221" class="cls-37" d="M76,5.7h1V5.9h.6v.3l.2.4v.2H78l.2.2h.4v.2h1.1l.4.4h0l-.2.4v.2h0v.4h-.4l-1.1.8h-.3V9.4h-.8V9.1H76.2V8.9H75V8.5L74.5,8H73l-.2-.2h-.3l-.6-.2h1.2V6.1h.7V6H75l.4.3H76Z"/><path id="DZA2222" class="cls-38" d="M82.1,6.8H80.2l-.4-.4H78.7V7.4h-.4L78,6.9h-.1V6.6l-.2-.4V5.9h1l.5-.2.5-.2H80V4.6h-.1V4h.4l.6-.3v.5h1.6v.2h0v.2h-.1l-.2.7v.4h0v.8Z"/><path id="DZA2223" class="cls-9" d="M82.1,6.8V8.1l.2.4V9.6l-.2.4v.9h.4v.2h0l-.3.4-.2.3v2h0l-.2.2h0v.2h-.5l-.2.2-.5.2h-.2l-.4.2-.2.2v.2l-.2.7h-.8v.2l-.2.2H77l-.4-.2.4-.8V15.3h.1v-.2l.2-.3h.1v-.3h0v-.2h-.1v-.3h-.8l.2-.2h.1l.2-.3.3-.3H78v-.2h0v-.2h.5V9.9l1.1-.8h.4V8.5h0V8.2l.2-.4h1.9Z"/></svg>