<svg xmlns="http://www.w3.org/2000/svg" xmlns:xlink="http://www.w3.org/1999/xlink" viewBox="0 0 259.2 443.3" style="height:100px">
    <defs>
        <style>.cls-1{fill:#3e4357;fill-rule:evenodd;}</style>
    </defs>
    <g id="group_1" data-name="group 1">
        <path class="cls-1"
            d="M225.2,172.3c5.3-2,14.9-2.7,24,0s15.7,33.3,2.3,37.1c-10.9,3.1-13,4.7-22.3,1.9s-14.1-19.2-12-20.2,6.7,15.9,18,18.2c5.6,1.6,21.5-2.9,21.4-12.9,0-5.4-1.9-18.6-9.4-21.1s-15.1-2.7-21.1,0-8.5,13-10.9,13S219.9,174.2,225.2,172.3Z" />
        <path class="cls-1"
            d="M233.2,181.3c4.9,3.9,5.1,5.9,11.3,4.3-2,2.4-.9,6.5-1.8,11.5-1-4.1-1.5-8.7-5.5-10.8l-2.2,1.2c-3,8.5-.9,7.1,2.2,14.8-3.1-3.5-5.4-7.4-10-10C233.7,189.8,233.1,188.4,233.2,181.3Z" />
    </g>
    <g id="group_2" data-name="group 2">
        <path class="cls-1"
            d="M247.2,138.3c-5.8-4.1-28.2-3.5-32.9,10-3.8,10.9,2.8,19.5,7.9,23s23,.8,24,0,.9.7,5-6S253.4,142.7,247.2,138.3Zm-1,29c-4.7,4.7-22.1,5.3-28-5-4.1-8.8-2.7-20.7,17.9-22.6S251.1,162.3,246.2,167.3Z" />
        <path class="cls-1"
            d="M233.7,146c2.4,3.8,3.2,4.5,4.5,7.3,1.1-2.9,6.4-5.5,7-5-8.1,7.9-7.4,11.8-3,17a3,3,0,0,0-2,0c.6,0-2.2-6.5-5-5-1.2,5.9.9,3.2-1.8,6.7-.1-2.1.1-4.2-1.2-5.7.9-1.3,3.6-1.6,2.3-3.3-7.3-5.3-10.7-2.8-13.3-2.8,5.4-5.7,7.6-2,15,2.1,1.2.7,1.6-3.9,1-3.6C233.9,151.4,233.1,148.7,233.7,146Z" />
    </g>
    <g id="group_3" data-name="group 3">
        <path class="cls-1"
            d="M239.6,108.3c-5-1.4-4.1-2-11.4-2s-18.3,4.7-19,5-6.7,2.1-3,16,27.1,13.5,34.6,6.9S244.6,109.8,239.6,108.3Zm-14.3,28.4c-11.6-.2-21.7-10.4-16.1-20.4,6-6.7,28.9-11.4,31.7-1.4,2.2,7.8.7,12.7.3,13.4S236.9,136.9,225.3,136.7Z" />
        <path class="cls-1"
            d="M221.2,111.3c4.6,5.6,2.6,8.6,11,6-4.7,6.3-6.7,1.4,1,8h-5c-.9-4.3-2.2-6.2-5-5,.8,2.6.9,4.1,2,6-1.9-1-2.1-3.2-5-2C222.1,118.3,222.8,114,221.2,111.3Z" />
    </g>
    <g id="group_4" data-name="group 4">
        <path class="cls-1"
            d="M210.2,76.1c-4.6,2.1-9.3,5.6-10.4,13.5s5.8,16.1,8.4,17.7,19.6,3.2,24-2.6c2-2.6,4-13.9,2.2-20.1C232,76.1,215.1,73.8,210.2,76.1Zm18,28.2c-5.2,5.8-22.5,2.9-25.5-9.9-.7-6.9,3-14.1,7.3-15.8s16.1-1.7,20.2,4.7S232.6,99.4,228.2,104.3Z" />
        <path class="cls-1"
            d="M223.2,81.9c3.3,1.9,0,6.9-1.6,10.8-.6,1.4,4.1,3.1,4.6,5.2-1.5.5-3.2-1.3-7-3.2-5.6,2.5,1.4,5-4,8.2,1.8-5.6-3.5-6.9-3-7,4.6-.6,6.9-2.2-.6-9.3,1.2-.1,1.6-.7,2.6-.7l4,6h1C220.8,88.5,223.9,85.6,223.2,81.9Z" />
    </g>
    <g id="group_5" data-name="group 5">
        <path class="cls-1"
            d="M203.2,49.3c-5.5-.3-13.8,2.8-17,8-6.8,11.3,7.1,21.5,12,22.2s10.1-.8,18-4.2c2.2-1.8,2.7-4.4,3-7C219.6,55,208.6,49.5,203.2,49.3Zm12.4,19.8c-2.2,12.9-29.6,5.7-28.4-4,.5-4.3,5.8-16.6,20.6-11.5a14.6,14.6,0,0,1,5.7,5.6A12.3,12.3,0,0,1,215.6,69.1Z" />
        <path class="cls-1"
            d="M202.2,61.3c-.2-2.3-3.9-3.6-5-5,1.3,2.1,3.6,5.4,3.2,7-3.4-.3-5.1-1.5-7.2-.5,6.2.8,8.3,4.8,13.6,8.6C208.1,70.7,202.5,66.6,202.2,61.3Z" />
    </g>
    <g id="group_6" data-name="group 6">
        <path class="cls-1"
            d="M193.2,24.3c-6.5,3-10.8,9.2-16,16-2.1,4.1-1.8,8-2,12a12.5,12.5,0,0,1,2,2c12.1,2.7,26.2-3.9,32-11C205,35.5,201.7,28.5,193.2,24.3Zm-12,28-4-1c.8-12.8,7.2-17.4,14-24,8.3,2.4,11.9,9.3,15.6,16C201.4,48,190.8,55,181.2,52.3Z" />
        <path class="cls-1" d="M192.2,29.3c-4.9,5.2-9.1,10.9-11,17C181.2,38.8,186.1,34,192.2,29.3Z" />
    </g>
    <g id="group_7" data-name="group 7">
        <path class="cls-1"
            d="M166.2,9.3c-5.7,7.4-7.8,18.5-7,31a8.9,8.9,0,0,0,3,3c15.9.6,24.1-8.2,27-20C182.7,17.1,177.3,11,166.2,9.3Zm0,33c-1.3-.7-3.6-1.3-5-2-1.3-10.6,1.6-20.8,5-28.1,10.3,1.5,14.6,6.9,21,12.1C183.2,37.3,172.1,40.9,166.2,42.3Z" />
    </g>
    <g id="group_8" data-name="group 8">
        <path class="cls-1"
            d="M163.2,6.3c-7-3.6-13.4-5.4-25-5-2.2,14.4-.6,30,7,36,.3.3.7.7,1.8.3C161.5,36,164,22,163.2,6.3Zm-22,19c3,6.6,7,9.4,10,10C144.8,35.5,142.4,33.1,141.2,25.3Zm7,7c-6.5-2.2-10.5-21-8-29a32.4,32.4,0,0,1,20.1,3.8C163.2,12.5,161.3,36.8,148.2,32.3Z" />
    </g>
    <g id="group_9" data-name="group 9">
        <path class="cls-1"
            d="M135.2,2.3C128.8-.8,122,0,115.2.3l-6,3c-2.2,13,2.5,25.4,8,32l7,1c8.6-7.2,10.7-15.7,11-26C135.5,8.4,135.4,6.8,135.2,2.3Zm-8,29c-.5,1.1-4.8,3-4.7,3,.5-2.4,6.7-8.3,7.7-9C130.5,26.5,128,29.7,127.2,31.3Zm-4-2c-1.6,1.5-3.7,2-7,0-3-7-6.3-12.8-6-22,1.6-4.4,5-4.3,8-5,7.2-.5,11.8-.9,15,2.8C132.8,17.7,130,23.5,123.2,29.3Z" />
    </g>
    <g id="group_10" data-name="group 10">
        <path class="cls-1"
            d="M108.2,8.3c-1.5-2-3.9-2.9-7-3-7.5,2.9-13.1,7-19,11,2.4,13.6,14.4,24.6,24.5,23.8C116.4,34.8,110.6,19,108.2,8.3Zm-1.9,30.3c-5.1-.3-18.3-5.7-22.1-20.3C89.3,14.7,93.3,10,100,8.1c3.1-.3,5,.1,6.9,1.8,1.9,8.2,4.3,17,2.3,26.4C108.9,36.9,107.6,37.6,106.3,38.6Z" />
    </g>
    <g id="group_11" data-name="group 11">
        <path class="cls-1"
            d="M76.2,17.3a82.3,82.3,0,0,0-16,17c7.4,10.3,20.4,15,30,15,1-.5,2-.3,3-1C97.4,36,87,21.1,76.2,17.3Zm16,29.2c-11.5,1.7-19.5-2.5-29-11.2,3.8-5.9,8.8-11.5,14-15C84.7,26.1,93.7,32.3,92.2,46.5Z" />
        <path class="cls-1" d="M77.4,22.9C86.5,28,88.8,33,88.6,39.9,87.1,33.5,84.4,28.4,77.4,22.9Z" />
    </g>
    <g id="group_12" data-name="group 12">
        <path class="cls-1"
            d="M83.2,49.3a61.8,61.8,0,0,0-19-9c-2.3.3-4.3.2-7,1s-4.7,3.5-7.1,6c-1.2,5.3-2.1,9.6.2,13.7,5.1,9.1,18,14.8,23.9,11.3,8.5-5.1,9.6-9,10.2-12A20.5,20.5,0,0,0,83.2,49.3Zm-1,9c-2.8,6.7-6.1,11.1-12,12.1s-19.6-8.2-19-14.1,1.6-7.2,4-10a15.6,15.6,0,0,1,7-3c10.7.2,13.4,3.1,19,8C83.6,53.9,82.5,56,82.2,58.3Z" />
        <path class="cls-1"
            d="M70.2,49.1c-.5,3.3-1.8,4-2,6.1,4.8-.1,5.9,0,7,1.1-1.9-1-5.2.6-6,1a9.6,9.6,0,0,1,4,4c-3.4-3.5-6.3-3.1-11.3,1a14.2,14.2,0,0,0,4.4-6.5C67,53.6,69.1,51.2,70.2,49.1Z" />
    </g>
    <g id="group_13" data-name="group 13">
        <path class="cls-1"
            d="M40.2,66.3c-6,4.2-8,10.4-8,14s-.5,6.8,3,13,20.5,6.1,26.3,2C76.7,84.6,61.9,58.8,40.2,66.3Zm23,24.2a18.5,18.5,0,0,1-24,2.8c-6.1-4.2-6-19.1,2-25C65.3,64,68.8,86.9,63.2,90.5Z" />
        <path class="cls-1"
            d="M44.2,72.3c.3,3.9,1.1,7,4,10,2.3-2.1,6.5-5,7-6-.7,4.7-3.3,4.7-6,7,2.4,3.1,5.9,2.3,6,3s-2.9,2.4-4,3c-.5,2.8.9,2,2,5-2-2.1-4.3-2.1-3-5a4.7,4.7,0,0,0-2-4.3c-3.2,0-3.7,2.3-7,3.3.3-1.3,3.3-3.4,5.3-6.1C43.6,78.7,42.6,78,44.2,72.3Z" />
    </g>
    <g id="group_14" data-name="group 14">
        <path class="cls-1"
            d="M58.2,104.3c-3-4.8-15.6-9.4-30-9l-4,2c-5.4,8.4-6.2,19.2,0,26s30.1,10,36-8C60.3,111.6,61.2,109.1,58.2,104.3Zm-5,17c-6.2,9.4-24,4.9-28-3-6.3-14.2.6-19.4,5-21s27.8,5.9,27,13S56.2,117.6,53.2,121.3Z" />
        <path class="cls-1"
            d="M43.6,101.1c-1.1.6-1.7,2.7-1.4,5.2-3.2.9-4.5,1.4-8.2-.2,1.5,2.6,1.3,1.1,2.5,3.2-1.9,4.4-.6,2.7-4.3,3,0,.3-.2,1.8.6,1.8,4.5-1.2,5.5,3.4,11.1-.8C45,112.5,43.3,103.3,43.6,101.1Zm-4.4,13.2a7.8,7.8,0,0,0-2-4c.7-.4,2.3-.7,3-1s3-.2,3,1.1S40.2,113.3,39.2,114.3Z" />
    </g>
    <g id="group_15" data-name="group 15">
        <path class="cls-1"
            d="M50.2,138.3c-6.2-8.4-16.1-12.3-26-15-2,.3-4-.3-7.4,1.5-14.7,18-2.2,29.6-.6,32.5,5.7,3.3,16.7,5.8,24,3S51.6,151.2,50.2,138.3Zm-15,22c-13.4,0-18.9-4.7-23-14-.7-10.1,1.1-12,6-20,15.6-2,20.6,5.5,30,13C47.5,145.4,52.8,152.2,35.2,160.3Z" />
        <path class="cls-1"
            d="M17.8,134.3c3.8,1.9,4.1,3,5.6,7.2,3.8-1.4,5.2-5.1,6.8-7.2.6,3-3.5,6.4-4.3,8.9s1.5,1.6,2.3,2.1c5.7-3.6,9-4.8,14-1-11.4-1.9-16.6,4.9-21,9,0-1.5-1,2.1,4-8C22.3,142.5,20.4,137.6,17.8,134.3Z" />
        <path class="cls-1" d="M28.2,150.3c1,.5,2.1,0,3,0v1c-.8,1-1,1-1,2a10.8,10.8,0,0,0-4,0A7.9,7.9,0,0,0,28.2,150.3Z" />
    </g>
    <g id="group_16" data-name="group 16">
        <path class="cls-1"
            d="M16.2,157.3c5.6-1.5,19.7,3.3,23.9,6.8,8.8,7.2,4.2,17.3,5.3,14.3C42.7,164,25.7,158,17.2,160.3S4.8,171.7,4.6,178.4c-.5,11.4,9.3,22.1,23,18.7,9.8-3.5,12.1-10.2,17.9-15.8a18,18,0,0,0-.3,4c-5.8,10.2-11.7,14-18.2,15.2s-20.7-5.1-22.2-8.8-2.9-11.5-2.5-15.5C3.1,166.3,10.5,158.8,16.2,157.3Z" />
        <path class="cls-1"
            d="M27.3,175.5c-1.9-.1-3.8-.5-5.7.3-5.3.4.1,7.1-3.4,8.5-.4-2.8.4-7.3-1-11,.3,0,.7,0,.9.7,4.7,3.1,5-1.7,10.9-3.7-1.4,8.6,2.3,10,4.2,11-5,2.7-5.9,8.2-10,9l2-2C27.6,181.3,30.4,187.2,27.3,175.5Z" />
    </g>
    <g id="group_17" data-name="group 17">
        <path class="cls-1"
            d="M28.2,226.3c-8.6-1.9-5.3-1.4-8-1s-12,3.3-18,5c-4.5,9.3-1.2,22.4,1.9,31.1s19.5,6.5,30.1,4.9C52,252.8,37.8,228.3,28.2,226.3Zm3,38c-6.7,1.7-15,1.2-19,0S-.2,242.4,3.7,235.8c2.3-3.9,10.8-5.8,16.5-7.5,2.4.3,4-.2,6.9.5S45,244.4,39.2,256.3C37.3,260.4,35.3,262.5,31.2,264.3Z" />
        <path class="cls-1"
            d="M22.2,236.3l8,11c-5.6-1.5-4.4,4.3-5.4,9.3-4.8-4.3-6.2-6.5-11.6-3.3,1.8-3.7,1.6-7.3,1-11h2c-1.2,5.5,0,5.9,3,8,1.3.3,2.7,1.6,4,1s.7-1.3,1-2C25,243.2,23.4,242.4,22.2,236.3Z" />
    </g>
    <g id="group_18" data-name="group 18">
        <path class="cls-1"
            d="M13.2,299.3c-9.7-6.6-5.8-22.1,0-29,4-1,5.8-3,12-3s17.5,7.8,18,12,0,6.2,0,9.3c5.7-1.8,1.4-18.8-12-23.3-7-.6-13.5,1.2-20,3-9,8-10.4,33.9,5.5,35.4s29.6-11.5,26.5-15.1C36.7,293.7,23.8,305.5,13.2,299.3Z" />
        <path class="cls-1" d="M15.2,271.3c6,7.3,9.8,13,22,13-1.3,4.1-12.7.8-17.2-3.9C17.8,277.7,15.8,275.2,15.2,271.3Z" />
        <path class="cls-1" d="M23.2,272.3c2.2,2.1,1.9,1.4,3,5-.7.3-1.3-.6-2-.3s-1.3.6-2,.3v-1A7.7,7.7,0,0,0,23.2,272.3Z" />
        <path class="cls-1"
            d="M19.2,282.3c.6,0,6,6.8,6,8s-.7,2-1,3c-1.5-1.8-1.9-8.2-5.7-8.2-1.2,2.2-3.2,3.2-4.6,4.5C14.9,286.1,18.4,282.3,19.2,282.3Z" />
    </g>
    <g id="group_19" data-name="group 19">
        <path class="cls-1"
            d="M52.2,312.3c-3.1-7.2-8.9-12.7-19-13-6.8,2.5-13.8,4.3-18,8-3.6,10.6-3.8,21,7,25,13.7,3.8,30.6-3.3,30-9C53.2,319.6,54.1,316,52.2,312.3Zm-12.1,17c-6.1,1.4-18.6,3.7-23.9-5-1.4-2.3-.3-15.1,2.1-16.6s11.5-5.5,15.3-5.5,18.3,7.4,17.6,14.3S47.3,327.6,40.1,329.3Z" />
        <path class="cls-1"
            d="M33.2,312.3c1.4,2.1,5.3,3.1,5.4,4.4.3,3.1-3.3,7.1-2,11.1-.8-2.6-3.1-6.3-4.4-6.6s-3.7.1-6,.1v-1a6.4,6.4,0,0,0,3-2c-.8-2-2.6-2.9-4.5-4.3.4,0,1.2-.7,1.5-.7,5.1,1.9,3.2,3.8,8.8,6,1.7-1.4.2-3.2-1.6-4.2S34.1,313.5,33.2,312.3Z" />
    </g>
    <g id="group_20" data-name="group 20">
        <path class="cls-1"
            d="M42.2,329.3c-5,1.3-10.3,2.4-15,4s-3.9,22.4-2,25,4.4,3.9,7,5c9.5,4.3,21.5-2,23-4s4.5-8.8,4-14S51.8,331.8,42.2,329.3Zm-10,32c-4.8-2.8-8.2-11.9-5-22,.8-6.4,14.9-7.1,20-6,2.7,2.7,6.2,2.5,8.8,11.9,1.2,4.3-1,11.8-6.1,14.9S34.8,362.8,32.2,361.3Z" />
        <path class="cls-1"
            d="M40.2,338.7c.4-.6,3.4-3,5-2.4-.3,1.6-2.2,2.9-2.3,3.8s3.6,2.8,3.2,3.1-5.2-1.1-3.7,4.7c4.2,2.5,4.5,3.3,2.8,6.4-1.2-2.5-2.4-5.2-5-6.4-.6.3-1.3,1.1-2,1.4-1.8,2.3-1.3,5.6-3.8,8,.1-2.5-1-5.2-.2-6.9s2.4-1.7,3-3.1a11,11,0,0,0-5-5v-1c2.4-.8,4.5,1.1,7.4,4C41.5,342.7,41.2,341.5,40.2,338.7Z" />
    </g>
    <g id="group_21" data-name="group 21">
        <path class="cls-1"
            d="M57.2,359.3c-4.8,0-13.7,3.4-17,11s.9,11.5,5.4,17.3,22.5,2.3,27.6-5.3c.3-3.7,2-6.4,1-11S62,359.3,57.2,359.3ZM71.4,381c-1,2.4-13.2,7.6-17.2,7.6s-15-6.9-12-17.3c2.9-6,8.1-9,12.9-9s12.9,4.5,17.1,11C72.2,376,72.4,378.5,71.4,381Z" />
        <path class="cls-1"
            d="M50.9,369.3c1.4.5,3,1.1,6.3,4a10.7,10.7,0,0,0,6-3l-3,5,6,2h-2c-2,.7-3.6-.3-5.6.3-.1,2.6-.4,2.4,2.1,5.8a12.1,12.1,0,0,1-3.4-3.1,16.2,16.2,0,0,1-2.4-5.4C54.6,373.4,51.5,372.2,50.9,369.3Z" />
    </g>
    <g id="group_22" data-name="group 22">
        <path class="cls-1"
            d="M83.2,388.3c-.3-1-.7-2-1-3l-11-1-17,6-4,5c1.5,10.7,6.7,13.6,12,20l3,1C72.4,412,87.8,400.2,83.2,388.3Zm-18,25c-6.7-3.8-9.8-8.7-13-16,4.4-5.7,11.7-6.2,18-10h10c.3,3.3.7,6.7,1,10C76.2,403.1,73.4,410.8,65.2,413.3Z" />
        <path class="cls-1" d="M77.2,393.3v6c-1.8,4.3-3.8,7-8,9C72.5,403.5,76.1,400.3,77.2,393.3Z" />
    </g>
    <g id="group_23" data-name="group 23">
        <path class="cls-1"
            d="M98.2,397.3l-12-1-18,19c7.6,6.4,11.3,12.9,23,16l5-3C97.7,416.7,102.2,406.5,98.2,397.3Zm-4,30c-9.4,2-15.9-5.5-22-10v-4c4-5.4,8.9-9.7,14-14l7,1C97.8,407.9,95.4,419,94.2,427.3Zm-2-29c4.8,1.1,4.8,1.4,7,5Z" />
    </g>
    <g id="group_24" data-name="group 24">
        <path class="cls-1"
            d="M110.2,401.3l-6,2c-4.4,6.7-10.8,18.6-8,29v2c6.6,4,14.3,5.4,26,5C122.8,421.8,123,406.9,110.2,401.3Zm8,10v3h-1c-1.9-6.2-4.1-6.3-8-10C114.2,406,115.6,407.4,118.2,411.3Zm-18,23c-4.2-6.4-3.1-19.3,3-24l5-3c8.8,2.5,12.5,16,11,25,.3,1.7.7,3.3,1,5Z" />
    </g>
    <g id="group_25" data-name="group 25">
        <path class="cls-1"
            d="M144.2,408.3c-3.6-2.2-5.1-3.6-11-4-7.3,7.2-11.4,18.2-11,33l3,2c5.6,2.7,20,1.6,23-2C153.3,430.4,146.7,414.9,144.2,408.3Zm-11-1h6c-5.2,2.7-7.5,2.6-10,8l-2,1Zm-8,31c.1-12.7,3.8-18.9,8-27h8c5.8,3.4,7.2,13.8,7,23C142.4,437.7,135.5,438.7,125.2,438.3Z" />
    </g>
    <g id="group_26" data-name="group 26">
        <path class="cls-1"
            d="M178.2,421.3c-4.8-6.8-11.2-16.4-19-20l-9-1c-.7,1-1.3,1-2,2-5.2,5.4,2.2,31.7,4,33C166.2,434,169.2,426.2,178.2,421.3Zm-30-16v-1c2-2.2.8-2.5,4,2-.6-1.7-2.5-4,0-4,13.5.5,21.7,14.9,22,16a10.1,10.1,0,0,1,0,3c-5.3,3.7-13.6,10.4-16,11s-4,0-6,0C150.9,423.3,149.5,414.3,148.2,405.3Z" />
    </g>
    <g id="group_27" data-name="group 27">
        <path class="cls-1"
            d="M166.2,390.3l-3,3c.4,12.9,6.9,21.6,14,28l5,1c6.1-4,11.4-8.4,14-16C198.5,397.1,177.2,390,166.2,390.3Zm-1,6c1.4-3.2,1-2,3-4,10.6.2,27.3,7.6,25.3,14.9-.9,3.6-6.6,12.6-12.6,11.8S168.1,407.7,165.2,396.3Z" />
        <path class="cls-1" d="M168.2,399.3l9,15A22.1,22.1,0,0,1,168.2,399.3Z" />
    </g>
    <g id="group_28" data-name="group 28">
        <path class="cls-1"
            d="M204.6,373.6c-2.4-1.7-14.4-7.7-19.5-5.7s-12.6,5.3-10.9,20.4c6,6.8,20.9,12.2,25.6,9.3s8.5-9.3,8.5-12.8S207,375.3,204.6,373.6Zm-3.3,20.1c-1.2,1.5-3.8,1.9-6.1,2.6-9.9-.6-20.6-8.4-19.5-13.9s7.2-12.5,11.6-12.7,15.2,3.1,17.9,9.6S202.6,392.3,201.3,393.7Z" />
        <path class="cls-1"
            d="M195.9,377.2c.9,1.7-3.6,3.5-3.6,5s.1,3.4-1,4.2c-4.5,3.3-5,5.2-5.1,4.9,0-3.8-.2-2.9,4-5,1-3.8-5.7-.9-7.1-2.5.8.2,4.7-1.1,5.3-.6.2-1.9-2.3-2.9-2.2-4.9,2.8,2.2,2.9,3.5,4.3,2.9A21.6,21.6,0,0,0,195.9,377.2Z" />
    </g>
    <g id="group_29" data-name="group 29">
        <path class="cls-1"
            d="M222.2,345.1c-3.5-2.3-19-6.1-22-4.8s-2.6 3-9,10,9.5,22.9,12.6,22.9,9.4,1.3,13.4-.9C227.9,367.3,225.7,347.3,222.2,345.1Zm-2,22.2c-2.8,2.4-3.3,2-5,3-3.8,1.7-11.5.8-15-1-5.2-3-9.3-11.6-8-15s6.5-12,10-12,13,1.4,17.4,4S222.9,364.8,220.2,367.3Z" />
        <path class="cls-1"
            d="M205.2,345.3c3.2-.1,3,2.4,2.6,4.8s1.3,2.9,1.4,4.2h1c3.5-3,3.1-3.1,7-3,0,.3-1.6,1.7-1.6,2-1.9,1.4-3.3-.4-3.4,5,5,1.3,2.6,8.4,1.4,9.1-1.9-6.2-1.4-11.2-6.4-10.1-1.7,4.4-.8,3.5-5,5a22.2,22.2,0,0,1,5.4-7c.6-2.5-4.6-1.9-4.7-2.3S208.4,351.1,205.2,345.3Z" />
    </g>
    <g id="group_30" data-name="group 30">
        <path class="cls-1"
            d="M212.2,309.3a19.2,19.2,0,0,0-12,10c-2.2,2.8-3.3,6.4-2,13s27.8,14.7,32,11,5-6.4,7-12C239.8,314,217.6,307.8,212.2,309.3Zm21,26c-1.3,1.7.4,1.7-4,5s-25.3-.9-28-11c-2.1-6.2,2.6-12,7-15l7-2c8.7.7,16.1,4.3,19,11C235.8,326.8,234.9,332.2,233.2,335.3Z" />
        <path class="cls-1"
            d="M225.2,322.3c-4.7,3.9-3.1,1.2-4.4-.1s-6.5,3.6-6.6,3.1-1.9-2-2.6-3.4c-1,5.8,3.2,8.4,1.8,15.5,3.3-4.5.8-8.3,10.2-5.3-5.1-7.1-1.3-3.9.7-5.3C224.7,326.5,223.8,324,225.2,322.3Zm-10,7v-2c.7-1,1.3-1,2-2h2C217.6,329.5,219.4,327.8,215.2,329.3Z" />
    </g>
    <g id="group_31" data-name="group 31">
        <path class="cls-1"
            d="M247.2,290.3c.7-4.5-1.4-4.8-4-7s-19.9-6.7-24-6-16.1,11.8-11.8,21.4,23.3,18.7,29.6,16.5S246.5,294.9,247.2,290.3Zm-9.8,21.3c-5.4,4.3-18.1-3.5-21.7-6.8s-7.2-10.8-5.4-14.2,5.7-11.6,9.5-11.3,16.7,4,18,4,8,4.7,6.6,9.2S241.8,308.1,237.4,311.6Z" />
        <path class="cls-1"
            d="M227.9,283.3c2.7,2.4,1.8,2.2,2.3,7,2-1.7,2.8-3.3,4.8-5,.2.4-1.2,5.7-2.8,8,2.7,3.8,4.7,5.3,6,11-2.9-3.2-2.6-6.3-5.5-7a26.3,26.3,0,0,0-5.5,7v-3l4-6c.3-2.2-.8-2.2-2-2-5.2,6.3-14.3,3.5-14,0,7.1,2.1,10.5,1.6,14-3C226.7,286,227.9,288.2,227.9,283.3Z" />
    </g>
    <g id="group_32" data-name="group 32">
        <path class="cls-1"
            d="M229.2,237.3c6.2-.6,22,4.7,25,10,1.5,2.7-.2,14-2.3,20.9s-5.3,8.6-9.7,12.1c-10.1,1.3-21.8-3.2-24.4-5.3s-6-6.4-6.6-14.7h1l2,1c.4,8.1,3.2,11.5,9,14s12.9,4,17.7,2.3,6.1-6.2,6.7-6.6c2.2-1.6,9.1-22.5,0-25.4s-11.2-4.9-18.1-4.7-11.5,10.6-17.3,16.4v-3C216.4,245.8,223,237.9,229.2,237.3Z" />
        <path class="cls-1"
            d="M233.2,248.3c-3.7,4.5-5.4,8-2.7,13.6.1,1.3.1,2.5,1.1,2.2a26,26,0,0,0,4.6-1.8c1-.8,1.3-5.3,2-8,1.3.4,1.5,6.1.4,9.2-9.2.7-6.6,4.4-9.8,4.7,1.6-3.5-.2-4.5-.7-9.3-1.6-.6-3.2-.9-4.9-1.6,1.5-.2,4.2-.4,4.8-2.3C229.1,251.3,231.2,247.9,233.2,248.3Z" />
    </g>
</svg>